<?xml version="1.0" encoding="UTF-8" standalone="no"?>
<!DOCTYPE svg PUBLIC "-//W3C//DTD SVG 1.1//EN" "http://www.w3.org/Graphics/SVG/1.1/DTD/svg11.dtd" >
<svg xmlns="http://www.w3.org/2000/svg">
<metadata>
Generated by SVGconv.
Copyright   : Copyright  1990 ParaGraph Intl.,  1998 ParaType Inc., ParaType Ltd. All rights reserved.
Designer    : Vladimir Yefimov, Alexander Tarbeev, Olga Chaeva, Manvel Shmavonyan
Foundry     : ParaType Ltd
Foundry URL : http://www.paratype.com
</metadata>
<defs>
<font id="PragmaticaWeb-Book" horiz-adv-x="589" >
<font-face units-per-em="1000" ascent="1005" descent="396" >
<font-face-src>
<font-face-name/>
</font-face-src>
</font-face>
<missing-glyph horiz-adv-x="500" />
<glyph unicode="&#13;" horiz-adv-x="233" />
<glyph unicode="&#32;" horiz-adv-x="233" />
<glyph unicode="&#33;" horiz-adv-x="311" d="M106 109h99v-109h-99zM205 700v-269l-25 -230h-49l-25 230l0 269z" />
<glyph unicode="&#34;" horiz-adv-x="420" d="M330 508h-52l-40 192h132zM142 508h-52l-40 192l132 0z" />
<glyph unicode="&#35;" horiz-adv-x="580" d="M376 442h-143l-28 -179h143zM309 10l26 168h-143l-26 -168h-68l26 168h-134l13 85h134l28 179h-134l13 85h134l26 167h68l-26 -167h143l26 167h68l-26 -167h134l-13 -85h-134l-28 -179h134l-13 -85h-134l-26 -168z" />
<glyph unicode="&#36;" horiz-adv-x="580" d="M268 646q-16 0 -38 -4.5q-22 -4.5 -41.5 -17.5q-19.5 -13 -33 -36.5q-13.5 -23.5 -13.5 -61.5q0 -50 31 -78q31 -28 95 -40zM321 57q32 -1 56.5 10.5q24.5 11.5 41.5 30q17 18.5 25.5 43.5q8.5 25 8.5 51q0 34 -13.5 56.5q-13.5 22.5 -33.5 36.5q-20 14 -43 20.5q-23 6.5 -42 8.5zM126 208q2 -45 17 -74q15 -29 36 -46q21 -17 44.5 -23.5q23.5 -6.5 44.5 -7.5l0 266q-71 15 -113 36.5q-42 21.5 -64 47.5q-22 26 -29 55q-7 29 -7 61q0 60 22.5 97q22.5 37 55 57.5q32.5 20.5 69.5 27.5q37 7 66 7l0 65h53v-65q26 -1 61 -8.5q35 -7.5 66 -27.5q31 -20 52 -55q21 -35 19 -91l-86 0q0 22 -8 43q-8 21 -22.5 37q-14.5 16 -35.5 26q-21 10 -46 10l0 -247q75 -13 119 -37.5q44 -24.5 66.5 -53.5q22.5 -29 29 -60q6.5 -31 6.5 -56q0 -66 -25 -105.5q-25 -39.5 -60.5 -61q-35.5 -21.5 -73 -29q-37.5 -7.5 -62.5 -8.5l0 -81h-53v81q-111 5 -167.5 57q-56.5 52 -63.5 163z" />
<glyph unicode="&#37;" horiz-adv-x="911" d="M594 192q0 -17 3.5 -42.5q3.5 -25.5 14 -48.5q10.5 -23 30 -39.5q19.5 -16.5 52.5 -16.5q33 0 52.5 16.5q19.5 16.5 30 39.5q10.5 23 14 48.5q3.5 25.5 3.5 42.5q0 43 -10 71.5q-10 28.5 -25 45.5q-15 17 -32.5 23.5q-17.5 6.5 -32.5 6.5q-15 0 -32.5 -6.5q-17.5 -6.5 -32.5 -23.5q-15 -17 -25 -45.5q-10 -28.5 -10 -71.5zt0 0zM530 192q0 62 18 101q18 39 43.5 61q25.5 22 54 30q28.5 8 48.5 8q20 0 48.5 -8q28.5 -8 54 -30q25.5 -22 43.5 -61q18 -39 18 -101q0 -27 -7 -61.5q-7 -34.5 -25 -65.5q-18 -31 -50 -52q-32 -21 -82 -21q-50 0 -82 21q-32 21 -50 52q-18 31 -25 65.5q-7 34.5 -7 61.5zt0 0zM117 508q0 -17 3.5 -42.5q3.5 -25.5 14 -48.5q10.5 -23 30 -39.5q19.5 -16.5 52.5 -16.5q33 0 52.5 16.5q19.5 16.5 30 39.5q10.5 23 14 48.5q3.5 25.5 3.5 42.5q0 43 -10 71.5q-10 28.5 -25 45.5q-15 17 -32.5 23.5q-17.5 6.5 -32.5 6.5q-15 0 -32.5 -6.5q-17.5 -6.5 -32.5 -23.5q-15 -17 -25 -45.5q-10 -28.5 -10 -71.5zt0 0zM53 508q0 62 18 101q18 39 43.5 61q25.5 22 54 30q28.5 8 48.5 8q20 0 48.5 -8q28.5 -8 54 -30q25.5 -22 43.5 -61q18 -39 18 -101q0 -27 -7 -61.5q-7 -34.5 -25 -65.5q-18 -31 -50 -52q-32 -21 -82 -21q-50 0 -82 21q-32 21 -50 52q-18 31 -25 65.5q-7 34.5 -7 61.5zt0 0zM649 700h71l-454 -700l-71 0z" />
<glyph unicode="&#38;" horiz-adv-x="683" d="M317 438q39 14 66.5 46q27.5 32 27.5 77q0 29 -20.5 51q-20.5 22 -53.5 22q-14 0 -28 -4q-14 -4 -25.5 -13q-11.5 -9 -19 -23.5q-7.5 -14.5 -7.5 -35.5q0 -36 19 -64.5q19 -28.5 41 -55.5zt0 0zM290 348q-38 -15 -62.5 -34q-24.5 -19 -39 -40q-14.5 -21 -20 -43q-5.5 -22 -5.5 -43q0 -23 8 -46.5q8 -23.5 25.5 -43q17.5 -19.5 44 -32q26.5 -12.5 63.5 -12.5q49 0 91.5 21.5q42.5 21.5 67.5 63.5zM621 306q-8 -46 -19.5 -84.5q-11.5 -38.5 -38.5 -79.5l120 -142h-105l-69 82q-17 -27 -41.5 -46q-24.5 -19 -53.5 -32q-29 -13 -60 -19q-31 -6 -62 -6q-60 0 -102 19q-42 19 -68 49q-26 30 -38 67q-12 37 -12 73q0 80 44 130q44 50 128 88q-24 28 -38 51.5q-14 23.5 -21 42q-7 18.5 -8.5 33q-1.5 14.5 -1.5 24.5q0 34 13 61q13 27 35 45.5q22 18.5 51.5 28q29.5 9.5 63.5 9.5q38 0 67 -12q29 -12 48 -31.5q19 -19.5 28.5 -45q9.5 -25.5 9.5 -52.5q0 -33 -12.5 -60.5q-12.5 -27.5 -31.5 -49.5q-19 -22 -42 -38q-23 -16 -45 -26l153 -182q10 16 16 37.5q6 21.5 13 65.5z" />
<glyph unicode="&#39;" horiz-adv-x="232" d="M142 508h-52l-40 192l132 0z" />
<glyph unicode="&#40;" horiz-adv-x="365" d="M282 700q-68 -132 -95 -243q-27 -111 -27 -199q0 -56 9.5 -113.5q9.5 -57.5 26 -114.5q16.5 -57 38.5 -111q22 -54 48 -103l-66 0q-46 78 -74.5 138.5q-28.5 60.5 -44 112q-15.5 51.5 -21 97.5q-5.5 46 -5.5 94q0 48 5.5 94q5.5 46 21 97.5q15.5 51.5 44 112q28.5 60.5 74.5 138.5z" />
<glyph unicode="&#41;" horiz-adv-x="365" d="M83 -184q44 85 68.5 155q24.5 70 36.5 125.5q12 55.5 14.5 96q2.5 40.5 2.5 65.5q0 22 -2.5 61.5q-2.5 39.5 -14.5 96q-12 56.5 -36.5 128q-24.5 71.5 -68.5 156.5l66 0q49 -78 77.5 -143q28.5 -65 43.5 -119q15 -54 19.5 -98.5q4.5 -44.5 4.5 -81.5q0 -37 -4.5 -81.5q-4.5 -44.5 -19.5 -99q-15 -54.5 -43.5 -119q-28.5 -64.5 -77.5 -142.5z" />
<glyph unicode="&#42;" horiz-adv-x="465" d="M153 403l-40 30l78 108l-125 40l16 47l126 -40v132h50v-132l125 40l16 -47l-124 -40l78 -108l-41 -30l-79 108z" />
<glyph unicode="&#43;" horiz-adv-x="600" d="M269 386v219h62v-219h219v-62h-219v-219h-62v219h-219l0 62z" />
<glyph unicode="&#44;" horiz-adv-x="311" d="M205 109v-140q0 -30 -10 -51q-10 -21 -25 -34.5q-15 -13.5 -32 -21q-17 -7.5 -32 -10.5l0 55q21 2 35.5 20.5q14.5 18.5 14.5 41.5v31h-50l0 109z" />
<glyph unicode="&#45;" horiz-adv-x="422" d="M79 310h264v-85l-264 0z" />
<glyph unicode="&#46;" horiz-adv-x="311" d="M106 109h99v-109l-99 0z" />
<glyph unicode="&#47;" horiz-adv-x="420" d="M357 700h63l-357 -885l-63 0z" />
<glyph unicode="&#48;" horiz-adv-x="580" d="M290 58q42 0 71 23.5q29 23.5 47 63q18 39.5 26 92.5q8 53 8 113q0 60 -8 113q-8 53 -26 92.5q-18 39.5 -47 63q-29 23.5 -71 23.5q-42 0 -71 -23.5q-29 -23.5 -47 -63q-18 -39.5 -26 -92.5q-8 -53 -8 -113q0 -60 8 -113q8 -53 26 -92.5q18 -39.5 47 -63q29 -23.5 71 -23.5zt0 0zM290 -21q-13 0 -36 2.5q-23 2.5 -50.5 14q-27.5 11.5 -55.5 34.5q-28 23 -51 64q-23 41 -37.5 103.5q-14.5 62.5 -14.5 152.5q0 90 14.5 152.5q14.5 62.5 37.5 103.5q23 41 51 64q28 23 55.5 34.5q27.5 11.5 50.5 14q23 2.5 36 2.5q13 0 36 -2.5q23 -2.5 50.5 -14q27.5 -11.5 55.5 -34.5q28 -23 51 -64q23 -41 37.5 -103.5q14.5 -62.5 14.5 -152.5q0 -90 -14.5 -152.5q-14.5 -62.5 -37.5 -103.5q-23 -41 -51 -64q-28 -23 -55.5 -34.5q-27.5 -11.5 -50.5 -14t-36 -2.5z" />
<glyph unicode="&#49;" horiz-adv-x="580" d="M130 575h21q31 0 60 9q29 9 51.5 25q22.5 16 37 39q14.5 23 18.5 52l66 0v-700h-94v526l-160 0z" />
<glyph unicode="&#50;" horiz-adv-x="580" d="M531 0h-474q0 63 17.5 109q17.5 46 49.5 82q32 36 75.5 66q43.5 30 94.5 62q22 14 47 30q25 16 46.5 38q21.5 22 35.5 51.5q14 29.5 14 69.5q0 66 -39 100q-39 34 -102 34q-67 0 -106 -38q-39 -38 -39 -101v-26h-92v21q0 24 7.5 61.5q7.5 37.5 32.5 73.5q25 36 72.5 62q47.5 26 127.5 26q54 0 97 -14.5q43 -14.5 73.5 -41.5q30.5 -27 47 -66.5q16.5 -39.5 16.5 -89.5q0 -49 -12 -84q-12 -35 -39 -65q-27 -30 -70 -59.5q-43 -29.5 -104 -68.5q-71 -45 -104 -80q-33 -35 -43 -73l370 0z" />
<glyph unicode="&#51;" horiz-adv-x="580" d="M130 213q1 -6 1.5 -11.5q0.5 -5.5 1.5 -11.5q2 -12 7.5 -35q5.5 -23 21 -45.5q15.5 -22.5 43.5 -39q28 -16.5 74 -16.5q54 0 86 17q32 17 48 40.5q16 23.5 20.5 48.5q4.5 25 4.5 42q0 58 -34.5 92q-34.5 34 -93.5 34h-72v76h28q11 0 36.5 2q25.5 2 51.5 13.5q26 11.5 45.5 36q19.5 24.5 19.5 69.5q0 21 -6 42.5q-6 21.5 -21.5 39q-15.5 17.5 -42.5 28.5q-27 11 -68 11q-12 0 -35 -3q-23 -3 -45.5 -18.5q-22.5 -15.5 -39 -47.5q-16.5 -32 -16.5 -90l-87 0q0 15 1.5 38.5q1.5 23.5 9 49.5q7.5 26 22 52q14.5 26 39.5 47q25 21 62.5 34q37.5 13 91.5 13q73 0 117 -22.5q44 -22.5 67 -53q23 -30.5 30.5 -63q7.5 -32.5 7.5 -53.5q0 -58 -32 -99.5q-32 -41.5 -83 -55.5l0 -2q27 -4 51 -17q24 -13 43 -35.5q19 -22.5 30 -53.5q11 -31 11 -71q0 -51 -18 -91.5q-18 -40.5 -50.5 -68q-32.5 -27.5 -76.5 -42q-44 -14.5 -96 -14.5q-77 0 -124 23.5q-47 23.5 -73.5 58.5q-26.5 35 -36.5 76q-10 41 -11 76z" />
<glyph unicode="&#52;" horiz-adv-x="580" d="M353 241v336l-240 -336zM23 162v79l329 459h95v-459h110v-79h-110v-162h-94l0 162z" />
<glyph unicode="&#53;" horiz-adv-x="580" d="M138 179q2 -17 9.5 -39q7.5 -22 24 -41q16.5 -19 43 -32q26.5 -13 67.5 -13q18 0 45.5 4q27.5 4 53.5 21q26 17 45 51.5q19 34.5 19 96.5q0 46 -13.5 78q-13.5 32 -35 51q-21.5 19 -49.5 27.5q-28 8.5 -56 8.5q-17 0 -37.5 -4q-20.5 -4 -39.5 -11.5q-19 -7.5 -35 -19q-16 -11.5 -25 -26.5l-88 0l49 369h378v-79h-309l-28 -207q33 29 71.5 41q38.5 12 86.5 12q48 0 88.5 -16.5q40.5 -16.5 69.5 -47q29 -30.5 45 -75q16 -44.5 16 -100.5q0 -53 -15 -98q-15 -45 -45.5 -79q-30.5 -34 -78 -53q-47.5 -19 -112.5 -19q-68 0 -112 20q-44 20 -70.5 50q-26.5 30 -38.5 65q-12 35 -15 65z" />
<glyph unicode="&#54;" horiz-adv-x="580" d="M143 224q0 -33 9.5 -63.5q9.5 -30.5 28.5 -54q19 -23.5 48.5 -38q29.5 -14.5 69.5 -14.5q39 0 66.5 14.5q27.5 14.5 45 39q17.5 24.5 26 55.5q8.5 31 8.5 64q0 32 -9 61q-9 29 -27.5 50.5q-18.5 21.5 -46.5 34.5q-28 13 -65 13q-74 0 -114 -45q-40 -45 -40 -117zt0 0zM441 546q-9 37 -27 57.5q-18 20.5 -38 30q-20 9.5 -39.5 11q-19.5 1.5 -29.5 1.5q-55 0 -88.5 -25q-33.5 -25 -51.5 -63.5q-18 -38.5 -24 -84q-6 -45.5 -6 -86.5l2 0q31 41 77 57.5q46 16.5 94 16.5q48 0 89 -16q41 -16 71.5 -46q30.5 -30 47.5 -73.5q17 -43.5 17 -99.5q0 -54 -16 -99.5q-16 -45.5 -47 -78.5q-31 -33 -75.5 -51q-44.5 -18 -101.5 -18q-58 0 -104.5 17q-46.5 17 -79 58.5q-32.5 41.5 -50 111.5q-17.5 70 -17.5 175q0 93 15.5 158q15.5 65 39.5 107q24 42 54 65.5q30 23.5 59 34.5q29 11 54.5 13q25.5 2 41.5 2q15 0 46.5 -3.5q31.5 -3.5 65.5 -20.5q34 -17 64 -52q30 -35 41 -99z" />
<glyph unicode="&#55;" horiz-adv-x="580" d="M34 700h511v-64q-35 -39 -63 -76q-28 -37 -51 -75.5q-23 -38.5 -42.5 -78.5q-19.5 -40 -37.5 -84q-17 -41 -29 -78.5q-12 -37.5 -21 -76q-9 -38.5 -15.5 -79.5q-6.5 -41 -11.5 -88l-100 0q10 76 29 152.5q19 76.5 55 161.5q16 37 36.5 76.5q20.5 39.5 45 79.5q24.5 40 53 78q28.5 38 60.5 73l-419 0z" />
<glyph unicode="&#56;" horiz-adv-x="580" d="M290 54q25 0 51 8.5q26 8.5 47 26.5q21 18 34.5 46.5q13.5 28.5 13.5 67.5q0 22 -6.5 46q-6.5 24 -23 44q-16.5 20 -45 33.5q-28.5 13.5 -71.5 13.5q-44 0 -72 -13.5q-28 -13.5 -44.5 -33.5q-16.5 -20 -23 -44q-6.5 -24 -6.5 -46q0 -39 13 -67.5q13 -28.5 34 -46.5q21 -18 47 -26.5q26 -8.5 52 -8.5zt0 0zM290 412q34 0 57.5 9.5q23.5 9.5 38.5 26q15 16.5 21.5 37.5q6.5 21 6.5 45q0 13 -4 33q-4 20 -17 38.5q-13 18.5 -37.5 31.5q-24.5 13 -65.5 13q-41 0 -65.5 -13q-24.5 -13 -37.5 -31.5q-13 -18.5 -17 -38.5q-4 -20 -4 -33q0 -24 6.5 -45q6.5 -21 21.5 -37.5q15 -16.5 38.5 -26q23.5 -9.5 57.5 -9.5zt0 0zM181 379q-48 17 -74.5 60.5q-26.5 43.5 -26.5 93.5q0 27 9 60q9 33 32.5 61.5q23.5 28.5 64.5 47.5q41 19 104 19q63 0 104 -19q41 -19 64.5 -47.5q23.5 -28.5 32.5 -61.5q9 -33 9 -60q0 -50 -26.5 -93.5q-26.5 -43.5 -74.5 -60.5q30 -8 53.5 -26q23.5 -18 40 -42q16.5 -24 25 -53.5q8.5 -29.5 8.5 -59.5q0 -45 -14 -85q-14 -40 -43 -69.5q-29 -29.5 -73.5 -47q-44.5 -17.5 -105.5 -17.5q-61 0 -105.5 17.5q-44.5 17.5 -73.5 47q-29 29.5 -43 69.5q-14 40 -14 85q0 30 8.5 59.5q8.5 29.5 25 53.5q16.5 24 40 42t53.5 26z" />
<glyph unicode="&#57;" horiz-adv-x="580" d="M436 476q0 33 -9.5 63.5q-9.5 30.5 -28.5 54q-19 23.5 -48.5 38q-29.5 14.5 -69.5 14.5q-39 0 -66.5 -14.5q-27.5 -14.5 -45 -39q-17.5 -24.5 -26 -55.5q-8.5 -31 -8.5 -64q0 -32 9 -61q9 -29 27.5 -51q18.5 -22 46.5 -34.5q28 -12.5 65 -12.5q74 0 114 45q40 45 40 117zt0 0zM138 154q9 -37 27 -57.5q18 -20.5 38 -30q20 -9.5 39 -11q19 -1.5 30 -1.5q55 0 88.5 25q33.5 25 51.5 63q18 38 24 84q6 46 6 87l-2 0q-31 -41 -77 -57.5q-46 -16.5 -94 -16.5q-48 0 -89 16q-41 16 -71.5 46q-30.5 30 -47.5 73.5q-17 43.5 -17 99.5q0 54 16 99.5q16 45.5 47 78.5q31 33 75.5 51q44.5 18 101.5 18q30 0 60.5 -4.5q30.5 -4.5 58 -18.5q27.5 -14 52 -38.5q24.5 -24.5 42 -65q17.5 -40.5 28 -98q10.5 -57.5 10.5 -137.5q0 -83 -12 -143.5q-12 -60.5 -32 -103q-20 -42.5 -47 -68.5q-27 -26 -56 -40.5q-29 -14.5 -59.5 -19.5q-30.5 -5 -57.5 -5q-15 0 -46.5 3.5q-31.5 3.5 -65.5 20.5q-34 17 -64 52q-30 35 -41 99z" />
<glyph unicode="&#58;" horiz-adv-x="311" d="M106 109h99v-109h-99zM106 508h99v-109l-99 0z" />
<glyph unicode="&#59;" horiz-adv-x="311" d="M205 109v-140q0 -30 -10 -51q-10 -21 -25 -34.5q-15 -13.5 -32 -21q-17 -7.5 -32 -10.5l0 55q21 2 35.5 20.5q14.5 18.5 14.5 41.5v31h-50v109zM106 508h99v-109l-99 0z" />
<glyph unicode="&#60;" horiz-adv-x="669" d="M555 651l30 -54l-449 -255l449 -255l-30 -54l-495 285l0 48z" />
<glyph unicode="&#61;" horiz-adv-x="600" d="M550 276v-62h-500v62zM550 476v-62h-500l0 62z" />
<glyph unicode="&#62;" horiz-adv-x="669" d="M114 33l-30 54l449 255l-449 255l30 54l495 -285l0 -48z" />
<glyph unicode="&#63;" horiz-adv-x="548" d="M53 489q-2 43 7.5 84q9.5 41 34.5 73q25 32 69.5 51.5q44.5 19.5 113.5 19.5q49 0 89 -12q40 -12 68.5 -35q28.5 -23 44 -57q15.5 -34 15.5 -77q0 -29 -6.5 -52.5q-6.5 -23.5 -19 -44.5q-12.5 -21 -32 -40.5q-19.5 -19.5 -45.5 -41.5q-16 -13 -31 -26.5q-15 -13.5 -27 -29.5q-12 -16 -19.5 -34.5q-7.5 -18.5 -7.5 -42.5v-21h-73q-2 16 -1 35.5q1 19.5 5.5 39.5q4.5 20 14 39.5q9.5 19.5 26.5 37.5q19 20 42 39q23 19 42 39q19 20 32 44q13 24 13 55q0 16 -6 35.5q-6 19.5 -21 37q-15 17.5 -40 29q-25 11.5 -64 11.5q-15 0 -38.5 -3.5q-23.5 -3.5 -46 -18.5q-22.5 -15 -38.5 -46.5q-16 -31.5 -14 -87.5zM220 109h99v-109l-99 0z" />
<glyph unicode="&#64;" horiz-adv-x="863" d="M517 337q0 59 -23 95.5q-23 36.5 -73 36.5q-27 0 -46 -11q-19 -11 -31 -29q-12 -18 -17.5 -42q-5.5 -24 -5.5 -50q0 -21 4 -44q4 -23 15 -42.5q11 -19.5 30.5 -32q19.5 -12.5 49.5 -12.5q31 0 50 13q19 13 29.5 33q10.5 20 14 42.5q3.5 22.5 3.5 42.5zt0 0zM617 29q-46 -27 -89.5 -38.5q-43.5 -11.5 -96.5 -11.5q-77 0 -144.5 24q-67.5 24 -118 71.5q-50.5 47.5 -79.5 117q-29 69.5 -29 159.5q0 82 29 150.5q29 68.5 79 117q50 48.5 118 75.5q68 27 145 27q95 0 165 -29q70 -29 116 -77.5q46 -48.5 68.5 -111.5q22.5 -63 22.5 -132q0 -39 -12 -79q-12 -40 -35 -72.5q-23 -32.5 -57 -52.5q-34 -20 -78 -20q-10 0 -22.5 1.5q-12.5 1.5 -24.5 6.5q-12 5 -23.5 14.5q-11.5 9.5 -18.5 25.5q-5 -10 -14 -20q-9 -10 -23 -17.5q-14 -7.5 -35 -12q-21 -4.5 -50 -4.5q-81 0 -127 53.5q-46 53.5 -46 143.5q0 41 11 77q11 36 32.5 62.5q21.5 26.5 52.5 42q31 15.5 70 15.5q50 0 77 -16.5q27 -16.5 41 -38.5l3 0v41h76v-252q0 -39 11.5 -48.5q11.5 -9.5 26.5 -9.5q27 0 46.5 15q19.5 15 32 38.5q12.5 23.5 18 51.5q5.5 28 5.5 55q0 71 -24 126q-24 55 -66 92.5q-42 37.5 -98.5 56.5q-56.5 19 -120.5 19q-72 0 -129 -26q-57 -26 -96.5 -69.5q-39.5 -43.5 -61 -100.5q-21.5 -57 -21.5 -118q0 -83 27.5 -142.5q27.5 -59.5 72 -97.5q44.5 -38 99.5 -56.5q55 -18.5 109 -18.5q57 0 95.5 15.5q38.5 15.5 61.5 30.5z" />
<glyph unicode="&#65;" horiz-adv-x="622" d="M433 260l-122 345l-122 -345zM97 0h-101l265 700h100l265 -700h-101l-66 181l-296 0z" />
<glyph unicode="&#66;" horiz-adv-x="689" d="M179 79h195q24 0 52.5 3.5q28.5 3.5 52.5 16q24 12.5 40 37q16 24.5 16 67.5q0 34 -11.5 57q-11.5 23 -32.5 37q-21 14 -50.5 20.5q-29.5 6.5 -66.5 6.5h-195zM179 403h189q39 0 65 9q26 9 42 24q16 15 23 34.5q7 19.5 7 41.5q0 15 -4.5 34q-4.5 19 -18.5 35.5q-14 16.5 -40.5 28q-26.5 11.5 -70.5 11.5h-192zM392 700q64 0 104.5 -16.5q40.5 -16.5 63.5 -42q23 -25.5 32 -57q9 -31.5 9 -62.5q0 -28 -9 -53.5q-9 -25.5 -25 -45.5q-16 -20 -37 -33.5q-21 -13.5 -46 -17.5l0 -3q22 -4 47.5 -14q25.5 -10 47.5 -30q22 -20 37 -51.5q15 -31.5 15 -78.5q0 -38 -11 -73q-11 -35 -39.5 -62q-28.5 -27 -76.5 -43.5q-48 -16.5 -123 -16.5h-296l0 700z" />
<glyph unicode="&#67;" horiz-adv-x="712" d="M674 232q-5 -38 -20 -82q-15 -44 -48.5 -82q-33.5 -38 -88.5 -63.5q-55 -25.5 -139 -25.5q-78 0 -140 24.5q-62 24.5 -104.5 71q-42.5 46.5 -65.5 113q-23 66.5 -23 150.5q0 93 20.5 157.5q20.5 64.5 52 107q31.5 42.5 70.5 66.5q39 24 75.5 35.5q36.5 11.5 66.5 14q30 2.5 45 2.5q84 0 138 -22q54 -22 86.5 -56.5q32.5 -34.5 47 -76.5q14.5 -42 18.5 -82l-94 0q-2 19 -10.5 46q-8.5 27 -29.5 52q-21 25 -58.5 42.5q-37.5 17.5 -97.5 17.5q-66 0 -110 -25.5q-44 -25.5 -70.5 -67.5q-26.5 -42 -38 -96q-11.5 -54 -11.5 -111q0 -61 16 -113q16 -52 47 -90q31 -38 74.5 -59.5q43.5 -21.5 99.5 -21.5q42 0 77.5 13q35.5 13 61.5 36.5q26 23.5 41.5 55q15.5 31.5 17.5 69.5z" />
<glyph unicode="&#68;" horiz-adv-x="719" d="M179 79h131q135 0 200 65.5q65 65.5 65 205.5q0 79 -20.5 131.5q-20.5 52.5 -54 83.5q-33.5 31 -76 43.5q-42.5 12.5 -87.5 12.5h-158zM342 700q18 0 49.5 -2q31.5 -2 68.5 -12.5q37 -10.5 75.5 -32q38.5 -21.5 69.5 -60q31 -38.5 50.5 -97.5q19.5 -59 19.5 -144q0 -86 -19 -145.5q-19 -59.5 -50 -98.5q-31 -39 -70.5 -61q-39.5 -22 -80.5 -32.5q-41 -10.5 -79.5 -12.5q-38.5 -2 -68.5 -2h-222l0 700z" />
<glyph unicode="&#69;" horiz-adv-x="612" d="M546 401v-79h-367v-243h416v-79h-510v700h499v-79h-405l0 -220z" />
<glyph unicode="&#70;" horiz-adv-x="568" d="M508 393v-79h-329v-314h-94v700h470v-79h-376l0 -228z" />
<glyph unicode="&#71;" horiz-adv-x="740" d="M682 365v-365h-73v113h-2q-30 -63 -90 -98.5q-60 -35.5 -143 -35.5q-63 0 -122 19.5q-59 19.5 -105 64q-46 44.5 -74 117q-28 72.5 -28 177.5q0 89 24 157q24 68 69 114q45 46 108 69.5q63 23.5 141 23.5q70 0 121.5 -19.5q51.5 -19.5 86 -51.5q34.5 -32 53.5 -73q19 -41 24 -84l-94 0q-2 24 -12 50.5q-10 26.5 -32 48q-22 21.5 -58.5 36q-36.5 14.5 -90.5 14.5q-55 0 -94.5 -16q-39.5 -16 -66 -42q-26.5 -26 -42.5 -58q-16 -32 -24 -64q-8 -32 -10.5 -60.5q-2.5 -28.5 -2.5 -47.5q0 -13 2 -40q2 -27 10 -59.5q8 -32.5 23.5 -67.5q15.5 -35 42 -63.5q26.5 -28.5 66 -47q39.5 -18.5 95.5 -18.5q65 0 106 23.5q41 23.5 64.5 58q23.5 34.5 32.5 74.5q9 40 9 72l-200 0l0 79z" />
<glyph unicode="&#72;" horiz-adv-x="710" d="M179 0h-94v700h94v-292h352v292h94v-700h-94v329l-352 0z" />
<glyph unicode="&#73;" horiz-adv-x="264" d="M179 700v-700h-94l0 700z" />
<glyph unicode="&#74;" horiz-adv-x="520" d="M117 232q0 -42 6 -74q6 -32 19.5 -54.5q13.5 -22.5 36.5 -34q23 -11.5 59 -11.5q37 0 60 13q23 13 35.5 36q12.5 23 16.5 55.5q4 32.5 4 70.5v467h94v-458q0 -69 -11.5 -118.5q-11.5 -49.5 -36.5 -81.5q-25 -32 -65.5 -47.5q-40.5 -15.5 -97.5 -15.5q-27 0 -63.5 5.5q-36.5 5.5 -70 27.5q-33.5 22 -57 65.5q-23.5 43.5 -23.5 118.5l0 36z" />
<glyph unicode="&#75;" horiz-adv-x="667" d="M525 700h127l-292 -288l311 -412h-125l-255 349l-112 -109v-240h-94v700h94l0 -347z" />
<glyph unicode="&#76;" horiz-adv-x="529" d="M535 0h-450v700h94v-621l356 0z" />
<glyph unicode="&#77;" horiz-adv-x="890" d="M179 588h-2l2 -27v-561h-94v700h141l219 -576l219 576h141v-700h-94v561l2 27h-3l-227 -588l-76 0z" />
<glyph unicode="&#78;" horiz-adv-x="740" d="M179 0h-94v700h104l372 -555v555h94v-700h-103l-373 555z" />
<glyph unicode="&#79;" horiz-adv-x="758" d="M145 350q0 -42 8.5 -93q8.5 -51 33.5 -95.5q25 -44.5 71 -74q46 -29.5 121 -29.5q12 0 34 2q22 2 48 11q26 9 53 27.5q27 18.5 49 50.5q22 32 36 81q14 49 14 120q0 62 -14 115.5q-14 53.5 -42.5 92.5q-28.5 39 -73 61.5q-44.5 22.5 -104.5 22.5q-53 0 -91.5 -16.5q-38.5 -16.5 -64.5 -42.5q-26 -26 -41.5 -58.5q-15.5 -32.5 -23.5 -65q-8 -32.5 -10.5 -61.5q-2.5 -29 -2.5 -48zt0 0zM45 350q0 92 25 161.5q25 69.5 69 116q44 46.5 105.5 70q61.5 23.5 134.5 23.5q58 0 117.5 -18q59.5 -18 107.5 -60.5q48 -42.5 78.5 -114q30.5 -71.5 30.5 -178.5q0 -91 -22 -154.5q-22 -63.5 -55.5 -104.5q-33.5 -41 -73.5 -63.5q-40 -22.5 -77 -33.5q-37 -11 -66 -13q-29 -2 -40 -2q-11 0 -40.5 2q-29.5 2 -66.5 13q-37 11 -77 33.5q-40 22.5 -73.5 63.5q-33.5 41 -55 104t-21.5 155z" />
<glyph unicode="&#80;" horiz-adv-x="639" d="M179 358h172q84 0 122 35q38 35 38 104q0 65 -39.5 94.5q-39.5 29.5 -120.5 29.5h-172zM370 700q54 0 97.5 -11q43.5 -11 74.5 -35q31 -24 48 -62.5q17 -38.5 17 -92.5q0 -49 -13 -89.5q-13 -40.5 -42 -69.5q-29 -29 -76 -45q-47 -16 -115 -16h-182v-279h-94l0 700z" />
<glyph unicode="&#81;" horiz-adv-x="758" d="M550 131q32 41 47.5 93q15.5 52 15.5 126q0 98 -26.5 156q-26.5 58 -63.5 88q-37 30 -77 39q-40 9 -67 9q-19 0 -43.5 -3.5q-24.5 -3.5 -50.5 -14.5q-26 -11 -51.5 -30.5q-25.5 -19.5 -45 -52q-19.5 -32.5 -31.5 -79.5q-12 -47 -12 -112q0 -41 8.5 -91.5q8.5 -50.5 33.5 -95q25 -44.5 71 -75q46 -30.5 121 -30.5q12 0 27.5 1.5q15.5 1.5 31 4.5q15.5 3 30.5 8.5q15 5.5 27 13.5l-78 87l54 47zM691 -25l-52 -49l-83 93q-5 -3 -18 -9.5q-13 -6.5 -35 -13.5q-22 -7 -53 -12q-31 -5 -71 -5q-102 0 -166.5 36.5q-64.5 36.5 -102 92q-37.5 55.5 -51.5 120.5q-14 65 -14 122q0 30 5 69q5 39 18 80q13 41 36.5 81q23.5 40 60.5 71.5q37 31.5 89.5 50.5q52.5 19 124.5 19q73 0 134.5 -23.5q61.5 -23.5 105.5 -70q44 -46.5 69 -116q25 -69.5 25 -161.5q0 -27 -2.5 -61.5q-2.5 -34.5 -13 -72.5q-10.5 -38 -30.5 -77.5q-20 -39.5 -55 -76.5z" />
<glyph unicode="&#82;" horiz-adv-x="681" d="M179 376h210q17 0 40.5 4.5q23.5 4.5 45.5 18q22 13.5 37 38q15 24.5 15 65.5q0 34 -11.5 57q-11.5 23 -31.5 37q-20 14 -48 19.5q-28 5.5 -61 5.5h-196zM85 700h310q19 0 43.5 -1.5q24.5 -1.5 50.5 -8q26 -6.5 50.5 -18.5q24.5 -12 44 -32.5q19.5 -20.5 31.5 -52q12 -31.5 12 -75.5q0 -30 -8 -58.5q-8 -28.5 -23.5 -52q-15.5 -23.5 -38 -40q-22.5 -16.5 -50.5 -22.5l0 -3q35 -13 55 -31q20 -18 30 -39.5q10 -21.5 12.5 -46.5q2.5 -25 3.5 -52q1 -36 1.5 -61q0.5 -25 2.5 -43.5q2 -18.5 7.5 -33q5.5 -14.5 16.5 -29.5l-99 0q-9 12 -14.5 23.5q-5.5 11.5 -7.5 28q-2 16.5 -3 39.5q-1 23 -1 57q0 27 -3 53.5q-3 26.5 -16 48q-13 21.5 -39.5 34.5q-26.5 13 -73.5 13h-200v-297l-94 0z" />
<glyph unicode="&#83;" horiz-adv-x="656" d="M139 222q-1 -35 12 -65q13 -30 39 -52q26 -22 63.5 -34.5q37.5 -12.5 85.5 -12.5q47 0 79.5 11q32.5 11 53 29q20.5 18 30 41.5q9.5 23.5 9.5 48.5q0 32 -13 53.5q-13 21.5 -33 35q-20 13.5 -45.5 21.5q-25.5 8 -49.5 13q-60 13 -114.5 24.5q-54.5 11.5 -96 32.5q-41.5 21 -66 56.5q-24.5 35.5 -24.5 95.5q0 49 19 87q19 38 54 63q35 25 84 38q49 13 108 13q65 0 112.5 -16.5q47.5 -16.5 79 -44.5q31.5 -28 48 -65q16.5 -37 19.5 -77l-94 0q-5 43 -25.5 68q-20.5 25 -46.5 37.5q-26 12.5 -53 15.5q-27 3 -43 3q-73 0 -117.5 -31.5q-44.5 -31.5 -44.5 -85.5q0 -32 14.5 -51.5q14.5 -19.5 38.5 -32q24 -12.5 55.5 -19.5q31.5 -7 66.5 -14q47 -9 94.5 -20.5q47.5 -11.5 86 -34.5q38.5 -23 62.5 -61.5q24 -38.5 24 -101.5q0 -52 -16.5 -88q-16.5 -36 -42.5 -59.5q-26 -23.5 -58 -36.5q-32 -13 -62.5 -19q-30.5 -6 -57 -7q-26.5 -1 -40.5 -1q-37 0 -85.5 7q-48.5 7 -92.5 31.5q-44 24.5 -75.5 73q-31.5 48.5 -35.5 131.5z" />
<glyph unicode="&#84;" horiz-adv-x="575" d="M13 621v79h549v-79h-227v-621h-94l0 621z" />
<glyph unicode="&#85;" horiz-adv-x="696" d="M166 700v-417q0 -32 3.5 -71.5q3.5 -39.5 21.5 -73.5q18 -34 54.5 -57q36.5 -23 102.5 -23q52 0 87 14.5q35 14.5 56 43q21 28.5 30 70.5q9 42 9 97v417h94v-429q0 -71 -15 -120.5q-15 -49.5 -39.5 -82q-24.5 -32.5 -55 -50.5q-30.5 -18 -61.5 -26.5q-31 -8.5 -58.5 -10.5q-27.5 -2 -46.5 -2q-64 0 -109 13.5q-45 13.5 -76 35.5q-31 22 -49 52q-18 30 -27.5 62q-9.5 32 -12 65.5q-2.5 33.5 -2.5 63.5l0 429z" />
<glyph unicode="&#86;" horiz-adv-x="594" d="M495 700h103l-245 -700h-112l-245 700h103l198 -603z" />
<glyph unicode="&#87;" horiz-adv-x="894" d="M302 0h-120l-186 700h106l146 -588l145 588h108l145 -588l146 588h106l-186 -700h-120l-145 589z" />
<glyph unicode="&#88;" horiz-adv-x="570" d="M460 700h117l-232 -342l245 -358h-121l-184 291l-184 -291h-121l245 358l-232 342h117l175 -275z" />
<glyph unicode="&#89;" horiz-adv-x="605" d="M497 700h112l-259 -408v-292h-94v292l-260 408h112l195 -324z" />
<glyph unicode="&#90;" horiz-adv-x="593" d="M547 700v-75l-406 -546h426v-79h-541v86l411 535h-389l0 79z" />
<glyph unicode="&#91;" horiz-adv-x="370" d="M317 700v-62h-123v-761h123v-62h-211l0 885z" />
<glyph unicode="&#92;" horiz-adv-x="420" d="M357 -185l-357 885h63l357 -885z" />
<glyph unicode="&#93;" horiz-adv-x="370" d="M264 700v-885h-211v62h122v761h-122l0 62z" />
<glyph unicode="&#94;" horiz-adv-x="442" d="M266 700l120 -218h-70l-95 175l-95 -175h-70l120 218z" />
<glyph unicode="&#95;" horiz-adv-x="497" d="M0 -133h497v-52l-497 0z" />
<glyph unicode="&#96;" horiz-adv-x="312" d="M218 568h-80l-96 132l106 0z" />
<glyph unicode="&#97;" horiz-adv-x="553" d="M385 260q-10 -8 -21 -11.5q-11 -3.5 -24 -5.5q-13 -2 -29.5 -3.5q-16.5 -1.5 -37.5 -4.5q-29 -5 -55.5 -9.5q-26.5 -4.5 -46.5 -14q-20 -9.5 -31.5 -27.5q-11.5 -18 -11.5 -48q0 -45 27.5 -69.5q27.5 -24.5 70.5 -24.5q26 0 52.5 7.5q26.5 7.5 49 27q22.5 19.5 37.5 53.5q15 34 18 87zM55 358q0 25 8.5 55q8.5 30 32 55.5q23.5 25.5 66 42.5q42.5 17 109.5 17q31 0 66.5 -6q35.5 -6 66 -24q30.5 -18 50.5 -51.5q20 -33.5 19 -89.5l-5 -235q0 -15 0.5 -26.5q0.5 -11.5 5.5 -19q5 -7.5 16 -11.5q11 -4 31 -3l0 -62q-9 -2 -17.5 -3q-8.5 -1 -22.5 -1q-18 0 -33.5 2.5q-15.5 2.5 -27 10q-11.5 7.5 -19 22q-7.5 14.5 -11.5 39.5q-13 -24 -32 -41q-19 -17 -42 -28q-23 -11 -48.5 -16q-25.5 -5 -51.5 -5q-80 0 -129.5 36.5q-49.5 36.5 -49.5 116.5q0 33 10 59.5q10 26.5 38 47q28 20.5 76 34q48 13.5 125 20.5q28 2 47 4q19 2 30.5 8.5q11.5 6.5 16.5 19.5q5 13 5 38q0 9 -2 26q-2 17 -13 34q-11 17 -34 29.5q-23 12.5 -65 12.5q-12 0 -34.5 -2q-22.5 -2 -44.5 -12.5q-22 -10.5 -38 -32q-16 -21.5 -15 -61.5z" />
<glyph unicode="&#98;" horiz-adv-x="601" d="M154 257q0 -60 13 -101q13 -41 34.5 -66.5q21.5 -25.5 48.5 -36.5q27 -11 56 -11q31 0 60 11q29 11 51 36q22 25 35 66q13 41 13 100q0 57 -12.5 97q-12.5 40 -33.5 65.5q-21 25.5 -49 37q-28 11.5 -59 11.5q-32 0 -60.5 -12q-28.5 -12 -50 -37q-21.5 -25 -34 -65q-12.5 -40 -12.5 -95zt0 0zM160 700v-258q21 45 66.5 65.5q45.5 20.5 100.5 20.5q55 0 93.5 -16q38.5 -16 64 -41q25.5 -25 40.5 -56q15 -31 22 -61.5q7 -30.5 9 -56.5q2 -26 2 -42q0 -83 -23 -136.5q-23 -53.5 -58 -84q-35 -30.5 -76 -42.5q-41 -12 -76 -12q-32 0 -57.5 7.5q-25.5 7.5 -46 20q-20.5 12.5 -36.5 28.5q-16 16 -28 34l-3 0v-70h-82l0 700z" />
<glyph unicode="&#99;" horiz-adv-x="548" d="M512 181q-2 -23 -11.5 -57q-9.5 -34 -33 -66q-23.5 -32 -66 -55q-42.5 -23 -110.5 -23q-13 0 -36 2q-23 2 -51 10q-28 8 -56.5 25.5q-28.5 17.5 -51.5 48q-23 30.5 -38 77.5q-15 47 -15 115q0 44 10 92q10 48 37 87.5q27 39.5 74 65q47 25.5 121 25.5q54 0 94 -14.5q40 -14.5 67 -39.5q27 -25 42.5 -57q15.5 -32 19.5 -68l-84 0q-7 42 -25 66q-18 24 -39 35q-21 11 -41.5 13.5q-20.5 2.5 -31.5 2.5q-41 0 -70 -16.5q-29 -16.5 -47 -44.5q-18 -28 -26 -66q-8 -38 -8 -81q0 -43 9 -82q9 -39 27.5 -69q18.5 -30 48.5 -47.5q30 -17.5 72 -17.5q37 0 62.5 14q25.5 14 41.5 34.5q16 20.5 23 45q7 24.5 8 45.5z" />
<glyph unicode="&#100;" horiz-adv-x="599" d="M136 255q0 -72 17.5 -114.5q17.5 -42.5 42 -64q24.5 -21.5 51.5 -28q27 -6.5 46 -6.5q29 0 56.5 11.5q27.5 11.5 48.5 37q21 25.5 34 66.5q13 41 13 100q0 55 -12.5 94.5q-12.5 39.5 -34.5 65q-22 25.5 -50.5 37.5q-28.5 12 -59.5 12q-32 0 -59.5 -12q-27.5 -12 -48 -37.5q-20.5 -25.5 -32.5 -65.5q-12 -40 -12 -96zt0 0zM527 700v-700h-82v70h-3q-6 -12 -18 -28q-12 -16 -32 -29.5q-20 -13.5 -49 -23q-29 -9.5 -69 -9.5q-56 0 -99 20q-43 20 -72 56.5q-29 36.5 -44.5 87q-15.5 50.5 -15.5 111.5q0 40 8 87.5q8 47.5 33 89q25 41.5 69.5 69q44.5 27.5 118.5 27.5q51 0 93.5 -17q42.5 -17 73.5 -69l0 258z" />
<glyph unicode="&#101;" horiz-adv-x="570" d="M434 296q-1 25 -7 55q-6 30 -21.5 55.5q-15.5 25.5 -42.5 42.5q-27 17 -70 17q-48 0 -79 -17.5q-31 -17.5 -48.5 -43.5q-17.5 -26 -23.5 -55.5q-6 -29.5 -6 -53.5zM522 147q-5 -27 -18.5 -56.5q-13.5 -29.5 -39 -54q-25.5 -24.5 -65.5 -40.5q-40 -16 -99 -16q-63 0 -106.5 17q-43.5 17 -72 43.5q-28.5 26.5 -44.5 58.5q-16 32 -23.5 62q-7.5 30 -9 54.5q-1.5 24.5 -1.5 36.5q0 17 2 44.5q2 27.5 10 58q8 30.5 24 61.5q16 31 43.5 56q27.5 25 68.5 40.5q41 15.5 100 15.5q76 0 121.5 -26.5q45.5 -26.5 70 -66.5q24.5 -40 33 -87.5q8.5 -47.5 10.5 -88.5q0 -6 0.5 -12.5q0.5 -6.5 0.5 -12.5l-391 0q0 -33 9 -67q9 -34 28 -61.5q19 -27.5 49.5 -45.5q30.5 -18 74.5 -18q31 0 56 8.5q25 8.5 42.5 23q17.5 14.5 28 33.5q10.5 19 14.5 40z" />
<glyph unicode="&#102;" horiz-adv-x="319" d="M306 446h-111v-446h-88v446h-94v62h94v69q0 66 33 96.5q33 30.5 101 30.5q14 0 34 -1.5q20 -1.5 31 -2.5l0 -62q-32 2 -43.5 1.5q-11.5 -0.5 -18.5 -0.5q-18 0 -28 -8q-10 -8 -14.5 -19q-4.5 -11 -5.5 -23q-1 -12 -1 -20v-61l111 0z" />
<glyph unicode="&#103;" horiz-adv-x="600" d="M296 42q12 0 37 6.5q25 6.5 50 29q25 22.5 44 65.5q19 43 19 117q0 96 -40 151q-40 55 -118 55q-37 0 -62.5 -12.5q-25.5 -12.5 -42 -31.5q-16.5 -19 -25 -43q-8.5 -24 -13 -46.5q-4.5 -22.5 -5 -42q-0.5 -19.5 -0.5 -29.5q0 -77 18.5 -121q18.5 -44 44 -65.5q25.5 -21.5 52 -27q26.5 -5.5 41.5 -5.5zt0 0zM166 -57q6 -22 20 -36q14 -14 32.5 -22.5q18.5 -8.5 40 -11.5q21.5 -3 41.5 -3q52 0 80 21q28 21 41.5 48q13.5 27 16 53q2.5 26 2.5 36v55q-18 -29 -35 -48.5q-17 -19.5 -36.5 -31.5q-19.5 -12 -42 -17.5q-22.5 -5.5 -50.5 -5.5q-45 0 -86.5 16q-41.5 16 -73 49.5q-31.5 33.5 -50.5 86q-19 52.5 -19 126.5q0 12 1 36.5q1 24.5 7 54.5q6 30 19.5 61.5q13.5 31.5 38 58q24.5 26.5 62 43q37.5 16.5 92.5 16.5q63 0 107.5 -23q44.5 -23 68.5 -67l3 0v70h82v-495q0 -49 -13.5 -83q-13.5 -34 -34.5 -57q-21 -23 -47.5 -36q-26.5 -13 -51.5 -20q-25 -7 -47 -8.5q-22 -1.5 -34 -1.5q-18 0 -50 2q-32 2 -65.5 14.5q-33.5 12.5 -62 40q-28.5 27.5 -40.5 79.5z" />
<glyph unicode="&#104;" horiz-adv-x="572" d="M160 700v-263q35 48 77.5 69.5q42.5 21.5 96.5 21.5q42 0 71 -11q29 -11 47.5 -29q18.5 -18 28 -39.5q9.5 -21.5 14 -42.5q4.5 -21 5 -39.5q0.5 -18.5 0.5 -28.5v-338h-88v311q0 22 -1 49q-1 27 -11 50.5q-10 23.5 -31.5 39.5q-21.5 16 -62.5 16q-18 0 -43 -6q-25 -6 -48 -25.5q-23 -19.5 -39 -57q-16 -37.5 -16 -100.5v-277h-88l0 700z" />
<glyph unicode="&#105;" horiz-adv-x="228" d="M70 700h88v-92h-88zM158 508v-508h-88l0 508z" />
<glyph unicode="&#106;" horiz-adv-x="231" d="M73 700h88v-92h-88zM161 508v-555q0 -34 -5.5 -60.5q-5.5 -26.5 -19 -44.5q-13.5 -18 -37 -27.5q-23.5 -9.5 -58.5 -9.5q-13 0 -30.5 1.5q-17.5 1.5 -26.5 2.5l0 62q35 6 53 11q18 5 26 13.5q8 8.5 9 23q1 14.5 1 39.5l0 544z" />
<glyph unicode="&#107;" horiz-adv-x="523" d="M402 508h105l-200 -196l220 -312h-102l-179 258l-86 -85v-173h-88v700h88l0 -434z" />
<glyph unicode="&#108;" horiz-adv-x="232" d="M160 700v-700h-88l0 700z" />
<glyph unicode="&#109;" horiz-adv-x="872" d="M160 508v-69l-1 -6q10 22 27 39.5q17 17.5 38 30q21 12.5 44.5 19q23.5 6.5 47.5 6.5q33 0 58 -9.5q25 -9.5 42.5 -25q17.5 -15.5 28.5 -35q11 -19.5 16 -39.5q7 15 21 33.5q14 18.5 35 35.5q21 17 50.5 28.5q29.5 11.5 69.5 11.5q58 0 91 -23.5q33 -23.5 49 -55.5q16 -32 19.5 -66q3.5 -34 3.5 -55v-328h-88v322q0 20 -2.5 45q-2.5 25 -12.5 47q-10 22 -29.5 37q-19.5 15 -53.5 15q-22 0 -46 -7q-24 -7 -43.5 -25.5q-19.5 -18.5 -32 -50q-12.5 -31.5 -12.5 -80.5v-303h-88v321q0 28 -4 54q-4 26 -15 46q-11 20 -30 32.5q-19 12.5 -49 12.5q-27 0 -51.5 -11.5q-24.5 -11.5 -43 -32.5q-18.5 -21 -29 -51.5q-10.5 -30.5 -10.5 -67.5v-303h-88l0 508z" />
<glyph unicode="&#110;" horiz-adv-x="573" d="M160 508v-71q26 38 70 64.5q44 26.5 104 26.5q50 0 82.5 -15.5q32.5 -15.5 51 -41.5q18.5 -26 26 -60.5q7.5 -34.5 7.5 -72.5v-338h-88v311q0 20 -1.5 47q-1.5 27 -11 51q-9.5 24 -31.5 40.5q-22 16.5 -63 16.5q-18 0 -43 -6q-25 -6 -48 -25.5q-23 -19.5 -39 -57q-16 -37.5 -16 -100.5v-277h-88l0 508z" />
<glyph unicode="&#111;" horiz-adv-x="586" d="M136 255q0 -76 19 -119q19 -43 45 -64q26 -21 52 -25.5q26 -4.5 41 -4.5q15 0 41 4.5q26 4.5 52 25.5q26 21 45 64q19 43 19 119q0 76 -19 119q-19 43 -45 64q-26 21 -52 25.5q-26 4.5 -41 4.5q-15 0 -41 -4.5q-26 -4.5 -52 -25.5q-26 -21 -45 -64q-19 -43 -19 -119zt0 0zM43 254q0 51 13 100q13 49 42.5 87.5q29.5 38.5 77.5 62.5q48 24 117 24q69 0 117 -24q48 -24 77.5 -62.5q29.5 -38.5 42.5 -87.5q13 -49 13 -100q0 -51 -13 -100q-13 -49 -42.5 -87.5q-29.5 -38.5 -77.5 -62.5q-48 -24 -117 -24q-69 0 -117 24q-48 24 -77.5 62.5q-29.5 38.5 -42.5 87.5t-13 100z" />
<glyph unicode="&#112;" horiz-adv-x="597" d="M154 252q0 -59 15 -99q15 -40 38.5 -65q23.5 -25 51 -35.5q27.5 -10.5 52.5 -10.5q27 0 53.5 10.5q26.5 10.5 48 35q21.5 24.5 35 65q13.5 40.5 13.5 101.5q0 98 -40 155q-40 57 -115 57q-17 0 -43 -6.5q-26 -6.5 -50 -28.5q-24 -22 -41.5 -64.5q-17.5 -42.5 -17.5 -114.5zt0 0zM154 508v-70h3q19 29 41.5 46.5q22.5 17.5 45 27.5q22.5 10 43.5 13q21 3 38 3q47 0 88.5 -16q41.5 -16 73 -49.5q31.5 -33.5 49.5 -85.5q18 -52 18 -123q0 -74 -19 -126q-19 -52 -51 -85q-32 -33 -73 -48q-41 -15 -84 -15q-8 0 -28.5 2q-20.5 2 -45.5 11.5q-25 9.5 -50.5 28q-25.5 18.5 -42.5 51.5l0 -258h-88l0 693z" />
<glyph unicode="&#113;" horiz-adv-x="598" d="M136 254q0 -61 13.5 -101.5q13.5 -40.5 35 -65q21.5 -24.5 49 -35q27.5 -10.5 54.5 -10.5q25 0 52.5 10.5q27.5 10.5 50.5 35q23 24.5 38 65q15 40.5 15 99.5q0 63 -14 104.5q-14 41.5 -35.5 66q-21.5 24.5 -48.5 34q-27 9.5 -53 9.5q-31 0 -59.5 -11.5q-28.5 -11.5 -50 -36.5q-21.5 -25 -34.5 -65.5q-13 -40.5 -13 -98.5zt0 0zM526 508v-693h-88v257q-4 -8 -14.5 -23.5q-10.5 -15.5 -30 -30.5q-19.5 -15 -49.5 -26.5q-30 -11.5 -73 -11.5q-72 0 -117 29q-45 29 -69.5 71.5q-24.5 42.5 -33 90q-8.5 47.5 -8.5 83.5q0 56 14 105.5q14 49.5 43 87q29 37.5 72 59.5q43 22 102 22q63 0 103.5 -27q40.5 -27 63.5 -63l3 0l0 70z" />
<glyph unicode="&#114;" horiz-adv-x="369" d="M356 466q-45 -2 -79.5 -12q-34.5 -10 -59 -31q-24.5 -21 -39 -54q-14.5 -33 -17.5 -81q-1 -14 -1 -27q0 -13 0 -27v-234h-88v508h88v-98h2q9 28 26.5 49.5q17.5 21.5 40 36q22.5 14.5 48.5 22.5q26 8 53 9l26 1z" />
<glyph unicode="&#115;" horiz-adv-x="506" d="M124 151q1 -30 13 -51q12 -21 31.5 -34q19.5 -13 44 -18.5q24.5 -5.5 49.5 -5.5q44 0 68 12q24 12 35 28q11 16 12.5 32q1.5 16 1.5 24q0 12 -2.5 23.5q-2.5 11.5 -13.5 22q-11 10.5 -32.5 20q-21.5 9.5 -58.5 18.5l-54 12q-32 7 -61 16q-29 9 -51 25q-22 16 -35 41.5q-13 25.5 -13 65.5q0 42 17 70.5q17 28.5 45 45q28 16.5 62 23.5q34 7 69 7q65 0 104.5 -16q39.5 -16 61.5 -39.5q22 -23.5 30 -50q8 -26.5 10 -47.5l-84 0q-1 11 -5.5 26.5q-4.5 15.5 -17 30q-12.5 14.5 -35.5 24.5q-23 10 -61 10q-4 0 -21 -1q-17 -1 -35.5 -8.5q-18.5 -7.5 -33.5 -24q-15 -16.5 -15 -46.5q0 -27 11.5 -43q11.5 -16 31 -25q19.5 -9 45 -14.5q25.5 -5.5 52.5 -11.5q39 -9 72 -18.5q33 -9.5 57.5 -25q24.5 -15.5 38 -40.5q13.5 -25 13.5 -64q0 -40 -14 -67.5q-14 -27.5 -35 -46q-21 -18.5 -46.5 -28.5q-25.5 -10 -49 -15q-23.5 -5 -41 -6q-17.5 -1 -23.5 -1q-57 0 -98.5 13.5q-41.5 13.5 -69.5 37q-28 23.5 -42 54.5q-14 31 -15 66z" />
<glyph unicode="&#116;" horiz-adv-x="320" d="M104 508v152h88v-152h108v-62h-108v-323q0 -14 0.5 -26.5q0.5 -12.5 5 -22.5q4.5 -10 15.5 -15.5q11 -5.5 32 -5.5q14 0 28 2.5q14 2.5 27 6.5l0 -62q-21 -9 -45 -14.5q-24 -5.5 -47 -5.5q-39 0 -60.5 12q-21.5 12 -31 30.5q-9.5 18.5 -11 40.5q-1.5 22 -1.5 42v341h-91l0 62z" />
<glyph unicode="&#117;" horiz-adv-x="573" d="M413 0v72h-2q-19 -33 -46 -51.5q-27 -18.5 -52.5 -27.5q-25.5 -9 -46 -11q-20.5 -2 -27.5 -2q-56 0 -89.5 19q-33.5 19 -50.5 48q-17 29 -22 62q-5 33 -5 62v337h88v-311q0 -48 8 -78q8 -30 22 -47.5q14 -17.5 33.5 -23.5q19.5 -6 43.5 -6q55 0 85 24.5q30 24.5 43.5 56.5q13.5 32 15.5 63q2 31 2 45v277h88l0 -508z" />
<glyph unicode="&#118;" horiz-adv-x="470" d="M379 508h95l-188 -508h-102l-188 508h95l144 -420z" />
<glyph unicode="&#119;" horiz-adv-x="720" d="M254 0h-94l-164 508h91l124 -407l106 407h86l106 -407l124 407h91l-164 -508h-94l-106 407z" />
<glyph unicode="&#120;" horiz-adv-x="484" d="M372 508h98l-178 -243l192 -265h-98l-144 209l-144 -209h-98l192 265l-178 243h98l130 -188z" />
<glyph unicode="&#121;" horiz-adv-x="498" d="M91 -119q20 -3 29 -4q9 -1 15 -1q19 0 32 7q13 7 22 19q9 12 14.5 27.5q5.5 15.5 11.5 32.5l12 38l-220 508h105l163 -411l135 411h88l-202 -568q-6 -18 -14 -40.5q-8 -22.5 -22.5 -42q-14.5 -19.5 -37.5 -33q-23 -13.5 -59 -13.5q-21 0 -39.5 1q-18.5 1 -32.5 4z" />
<glyph unicode="&#122;" horiz-adv-x="468" d="M427 508v-62l-295 -384h310v-62h-416v62l304 384h-283l0 62z" />
<glyph unicode="&#123;" horiz-adv-x="366" d="M75 290q12 1 27.5 7q15.5 6 29 20.5q13.5 14.5 23 40.5q9.5 26 9.5 67q0 14 -0.5 27q-0.5 13 -1.5 27q-1 14 -1.5 26.5q-0.5 12.5 -0.5 26.5q0 23 4.5 51q4.5 28 21 52.5q16.5 24.5 47 43q30.5 18.5 83.5 21.5l0 -53q-70 -15 -70 -95q0 -26 3 -53q3 -29 3 -57q0 -69 -27.5 -112.5q-27.5 -43.5 -88.5 -71.5l0 -2q61 -28 88.5 -71.5q27.5 -43.5 27.5 -112.5q0 -29 -3 -57q-3 -27 -3 -53q0 -80 70 -95l0 -53q-53 3 -83.5 21.5q-30.5 18.5 -47 43q-16.5 24.5 -21 52.5q-4.5 28 -4.5 51q0 14 0.5 26.5q0.5 12.5 1.5 26.5q1 14 1.5 27q0.5 13 0.5 27q0 41 -9.5 67q-9.5 26 -23 40.5q-13.5 14.5 -29 20q-15.5 5.5 -27.5 7.5z" />
<glyph unicode="&#124;" horiz-adv-x="478" d="M208 829h62v-1053l-62 0z" />
<glyph unicode="&#125;" horiz-adv-x="366" d="M291 224q-12 -2 -27.5 -7.5q-15.5 -5.5 -29 -20q-13.5 -14.5 -23 -40.5q-9.5 -26 -9.5 -67q0 -14 0.5 -27q0.5 -13 1.5 -27q1 -14 1.5 -26.5q0.5 -12.5 0.5 -26.5q0 -23 -4.5 -51q-4.5 -28 -21 -52.5q-16.5 -24.5 -47.5 -43q-31 -18.5 -83 -21.5l0 53q70 15 70 95q0 26 -3 53q-3 28 -3 57q0 69 27.5 112.5q27.5 43.5 88.5 71.5l0 2q-61 28 -88.5 71.5q-27.5 43.5 -27.5 112.5q0 28 3 57q3 27 3 53q0 80 -70 95l0 53q52 -3 83 -21.5q31 -18.5 47.5 -43q16.5 -24.5 21 -52.5q4.5 -28 4.5 -51q0 -14 -0.5 -26.5q-0.5 -12.5 -1.5 -26.5q-1 -14 -1.5 -27q-0.5 -13 -0.5 -27q0 -41 9.5 -67q9.5 -26 23 -40.5q13.5 -14.5 29 -20.5q15.5 -6 27.5 -7z" />
<glyph unicode="&#126;" horiz-adv-x="600" d="M50 304q7 19 18.5 41.5q11.5 22.5 28 42q16.5 19.5 38 32q21.5 12.5 48.5 12.5q23 0 45 -6q22 -6 42 -17l103 -55q1 -1 16.5 -7q15.5 -6 35.5 -6q7 0 18 3q11 3 22.5 11.5q11.5 8.5 23.5 24.5q12 16 22 42l39 -16q-7 -20 -18.5 -42q-11.5 -22 -28 -41.5q-16.5 -19.5 -38 -32q-21.5 -12.5 -48.5 -12.5q-23 0 -45 6q-22 6 -42 17l-103 55q-11 5 -25.5 9q-14.5 4 -27.5 4q-29 0 -51.5 -24.5q-22.5 -24.5 -33.5 -56.5z" />
<glyph unicode="&#160;" horiz-adv-x="233" />
<glyph unicode="&#161;" horiz-adv-x="311" d="M205 399h-99v109h99zM106 -185v262l25 231h49l25 -231l0 -262z" />
<glyph unicode="&#162;" horiz-adv-x="580" d="M280 466q-37 -3 -61.5 -23.5q-24.5 -20.5 -39.5 -50q-15 -29.5 -21 -65q-6 -35.5 -6 -69.5q0 -38 7 -74q7 -36 22 -65.5q15 -29.5 39.5 -50q24.5 -20.5 59.5 -26.5zM528 181q-4 -38 -18 -74q-14 -36 -39 -64q-25 -28 -59.5 -45q-34.5 -17 -78.5 -18l0 -72h-53v72q-62 1 -104 26.5q-42 25.5 -68 65.5q-26 40 -37.5 89q-11.5 49 -11.5 97q0 61 15.5 110.5q15.5 49.5 44.5 84.5q29 35 69.5 54.5q40.5 19.5 91.5 20.5l0 66h53v-66q35 -2 67.5 -14.5q32.5 -12.5 58.5 -35.5q26 -23 43 -55.5q17 -32.5 22 -73.5l-84 0q-3 19 -10.5 39q-7.5 20 -20.5 36q-13 16 -32 27.5q-19 11.5 -44 14.5l0 -424q27 4 47.5 17.5q20.5 13.5 34 33q13.5 19.5 20.5 42.5q7 23 9 46z" />
<glyph unicode="&#163;" horiz-adv-x="580" d="M551 46q-27 -27 -57.5 -47q-30.5 -20 -74.5 -20q-12 0 -40 4q-28 4 -82 26q-18 8 -34.5 15q-16.5 7 -49.5 7q-21 0 -48.5 -7q-27.5 -7 -59.5 -31l-45 65q46 32 73.5 72q27.5 40 27.5 95q0 22 -5 40.5q-5 18.5 -11 38.5l-104 0v61h73q-10 21 -17 38q-7 17 -11.5 32.5q-4.5 15.5 -7 32q-2.5 16.5 -2.5 37.5q0 55 16 92q16 37 41 61q25 24 54.5 37q29.5 13 56.5 18.5q27 5.5 47.5 6.5q20.5 1 27.5 1q28 0 65.5 -6.5q37.5 -6.5 72 -31q34.5 -24.5 59 -72q24.5 -47.5 24.5 -129.5l-89 0v32q0 28 -8 54q-8 26 -24.5 45.5q-16.5 19.5 -42.5 31q-26 11.5 -63 11.5q-34 0 -61 -12q-27 -12 -45.5 -33q-18.5 -21 -28.5 -49.5q-10 -28.5 -10 -62.5q0 -20 3.5 -35q3.5 -15 9.5 -30q6 -15 14.5 -31.5q8.5 -16.5 19.5 -37.5l141 0v-61h-117q5 -16 7 -30q2 -14 2 -32q0 -34 -11.5 -70q-11.5 -36 -53.5 -74l2 -6q16 7 33.5 9q17.5 2 39.5 2q27 0 44.5 -6q17.5 -6 37.5 -14q29 -12 48 -17.5q19 -5.5 34 -5.5q29 0 50.5 15q21.5 15 34.5 31z" />
<glyph unicode="&#164;" horiz-adv-x="825" d="M199 330q0 -44 16.5 -83q16.5 -39 45.5 -68q29 -29 68 -46q39 -17 83 -17q45 0 84 17q39 17 68 46.5q29 29.5 46 68q17 38.5 17 82.5q0 44 -17 83q-17 39 -46.5 68.5q-29.5 29.5 -68.5 46.5q-39 17 -83 17q-44 0 -82.5 -17q-38.5 -17 -67.5 -46.5q-29 -29.5 -46 -68.5q-17 -39 -17 -83zt0 0zM177 164q-29 41 -40.5 84q-11.5 43 -11.5 82q0 30 9.5 75.5q9.5 45.5 42.5 90.5l-111 112l66 66l110 -112q43 33 87.5 45q44.5 12 82.5 12q36 0 64 -7q28 -7 49.5 -16q21.5 -9 35.5 -18.5q14 -9.5 21 -15.5l111 112l66 -66l-111 -112q29 -40 41 -83q12 -43 12 -83q0 -39 -12 -82q-12 -43 -41 -84l111 -111l-66 -66l-111 111q-8 -6 -22 -15.5q-14 -9.5 -35 -18.5q-21 -9 -49 -15.5q-28 -6.5 -64 -6.5q-35 0 -63.5 6.5q-28.5 6.5 -49.5 15.5q-21 9 -35.5 18.5q-14.5 9.5 -21.5 15.5l-110 -111l-66 66z" />
<glyph unicode="&#165;" horiz-adv-x="580" d="M484 700h112l-259 -408v-39h105v-46h-105v-32h105v-46h-105v-129h-94v129h-105v46h105v32h-105v46h105v39l-260 408h112l195 -324z" />
<glyph unicode="&#166;" horiz-adv-x="478" d="M208 399v430h62v-430zM270 206v-430h-62l0 430z" />
<glyph unicode="&#167;" horiz-adv-x="579" d="M332 150q15 4 32 13.5q17 9.5 32 24.5q15 15 24.5 37q9.5 22 9.5 53q0 25 -8.5 46q-8.5 21 -29.5 39q-21 18 -57 35.5q-36 17.5 -91 37.5q-53 -15 -74.5 -47.5q-21.5 -32.5 -21.5 -69.5q0 -37 13.5 -61q13.5 -24 37.5 -42q24 -18 58 -33q34 -15 75 -33zt0 0zM378 557q-1 35 -9.5 55q-8.5 20 -21.5 30.5q-13 10.5 -28 13.5q-15 3 -29 3q-38 0 -56.5 -20q-18.5 -20 -18.5 -51q0 -28 13 -46.5q13 -18.5 34.5 -31.5q21.5 -13 48.5 -23.5q27 -10.5 55 -22.5q35 -15 63 -33q28 -18 47 -40.5q19 -22.5 29 -51q10 -28.5 10 -65.5q0 -43 -14 -71.5q-14 -28.5 -33.5 -47q-19.5 -18.5 -40.5 -27.5q-21 -9 -34 -13q24 -8 36.5 -24.5q12.5 -16.5 18 -34.5q5.5 -18 6 -33q0.5 -15 0.5 -20q0 -36 -10.5 -61q-10.5 -25 -27 -41q-16.5 -16 -36.5 -25.5q-20 -9.5 -39.5 -13.5q-19.5 -4 -36 -5q-16.5 -1 -25.5 -1q-59 0 -92.5 21q-33.5 21 -50.5 49.5q-17 28.5 -21 58.5q-4 30 -4 48l74 -1q-1 -18 3.5 -37.5q4.5 -19.5 15.5 -35.5q11 -16 29 -26.5q18 -10.5 45 -10.5q28 0 46 7q18 7 28.5 18q10.5 11 14 24.5q3.5 13.5 3.5 26.5q0 26 -11 43q-11 17 -29.5 29.5q-18.5 12.5 -44 22.5q-25.5 10 -54.5 22q-27 11 -56 26q-29 15 -54 38.5q-25 23.5 -41 56q-16 32.5 -16 78.5q0 70 34.5 109q34.5 39 84.5 50q-29 20 -41 48q-12 28 -12 69q0 27 10 51q10 24 30 43q20 19 50 30q30 11 71 11q15 0 42.5 -3.5q27.5 -3.5 54.5 -19.5q27 -16 46.5 -50q19.5 -34 17.5 -95z" />
<glyph unicode="&#168;" horiz-adv-x="386" d="M248 700h88v-92h-88zM50 700h88v-92l-88 0z" />
<glyph unicode="&#169;" horiz-adv-x="806" d="M551 297q-7 -40 -22 -64.5q-15 -24.5 -34.5 -38q-19.5 -13.5 -42.5 -18q-23 -4.5 -45 -4.5q-51 0 -83.5 18.5q-32.5 18.5 -51 45.5q-18.5 27 -25 58q-6.5 31 -6.5 57q0 57 16 93.5q16 36.5 40 57.5q24 21 52.5 29q28.5 8 53.5 8q21 0 45 -5.5q24 -5.5 45 -18.5q21 -13 35 -35.5q14 -22.5 14 -55.5l-62 0q-1 8 -4 19.5q-3 11.5 -11.5 21.5q-8.5 10 -23 17q-14.5 7 -38.5 7q-32 0 -50.5 -15q-18.5 -15 -28.5 -36.5q-10 -21.5 -12.5 -45q-2.5 -23.5 -2.5 -41.5q0 -14 3.5 -36q3.5 -22 14 -42.5q10.5 -20.5 30 -35.5q19.5 -15 51.5 -15q23 0 37.5 8.5q14.5 8.5 23 20q8.5 11.5 12 24.5q3.5 13 4.5 22zM119 350q0 -62 22 -116q22 -54 60.5 -94.5q38.5 -40.5 90 -63.5q51.5 -23 111.5 -23q60 0 111.5 23q51.5 23 90 63.5q38.5 40.5 60.5 94.5q22 54 22 116q0 62 -22 116q-22 54 -60.5 94.5q-38.5 40.5 -90 63.5q-51.5 23 -111.5 23q-60 0 -111.5 -23q-51.5 -23 -90 -63.5q-38.5 -40.5 -60.5 -94.5q-22 -54 -22 -116zt0 0zM53 350q0 72 27 136q27 64 74.5 111.5q47.5 47.5 111 75q63.5 27.5 137.5 27.5q73 0 137 -27.5q64 -27.5 111.5 -75q47.5 -47.5 74.5 -111.5q27 -64 27 -136q0 -72 -27 -136q-27 -64 -74.5 -111.5q-47.5 -47.5 -111.5 -75q-64 -27.5 -137 -27.5q-74 0 -137.5 27.5q-63.5 27.5 -111 75q-47.5 47.5 -74.5 111.5t-27 136z" />
<glyph unicode="&#170;" horiz-adv-x="368" d="M37 354h299v-31h-299zM254 560q-4 -4 -8 -5.5q-4 -1.5 -11 -2.5q-7 -1 -18.5 -2.5q-11.5 -1.5 -29.5 -4.5q-18 -3 -33.5 -5.5q-15.5 -2.5 -27.5 -8.5q-12 -6 -19 -16.5q-7 -10.5 -7 -28.5q0 -28 16.5 -42.5q16.5 -14.5 42.5 -14.5q15 0 31 4.5q16 4.5 29.5 16.5q13.5 12 23 32q9.5 20 10.5 52zM56 619q0 16 5 34q5 18 19 33q14 15 39.5 25q25.5 10 66.5 10q45 0 69.5 -12.5q24.5 -12.5 36 -30q11.5 -17.5 13.5 -34.5q2 -17 2 -26l-3 -141q0 -17 4 -27.5q4 -10.5 28 -8.5l0 -37q-5 -1 -10.5 -1.5q-5.5 -0.5 -13.5 -0.5q-8 0 -17 1q-9 1 -17 5q-8 4 -14 13q-6 9 -7 25q-17 -29 -46 -41.5q-29 -12.5 -58 -12.5q-22 0 -41.5 4.5q-19.5 4.5 -34.5 15q-15 10.5 -23.5 28.5q-8.5 18 -8.5 44q0 33 17 51q17 18 40.5 27.5q23.5 9.5 49 12.5q25.5 3 43.5 5q16 1 27 2q11 1 18 5q7 4 10.5 12q3.5 8 3.5 23q0 4 -1 14q-1 10 -7 20.5q-6 10.5 -20 19q-14 8.5 -40 8.5q-12 0 -25.5 -1.5q-13.5 -1.5 -25 -8.5q-11.5 -7 -20 -20q-8.5 -13 -9.5 -35z" />
<glyph unicode="&#171;" horiz-adv-x="462" d="M387 182v-82l-149 131v82l149 131v-82l-106 -90zM211 182v-82l-149 131v82l149 131v-82l-106 -90z" />
<glyph unicode="&#172;" horiz-adv-x="600" d="M550 386v-202h-62v140h-438l0 62z" />
<glyph unicode="&#173;" horiz-adv-x="422" d="M79 310h264v-85l-264 0z" />
<glyph unicode="&#174;" horiz-adv-x="806" d="M340 371h75q20 0 32.5 5q12.5 5 19.5 13.5q7 8.5 9.5 18.5q2.5 10 2.5 19q0 32 -19.5 42.5q-19.5 10.5 -51.5 10.5h-68zM275 528h155q14 0 33.5 -3q19.5 -3 37.5 -13.5q18 -10.5 31 -30.5q13 -20 13 -54q0 -9 -2 -19.5q-2 -10.5 -8 -21.5q-6 -11 -18 -21q-12 -10 -31 -18l0 -2q17 -3 26.5 -12q9.5 -9 14.5 -20.5q5 -11.5 6.5 -25q1.5 -13.5 2.5 -26.5q1 -20 1.5 -33q0.5 -13 1.5 -21.5q1 -8.5 3.5 -15q2.5 -6.5 7.5 -13.5l-67 0q-5 5 -7 10q-2 5 -3 13.5q-1 8.5 -1.5 21.5q-0.5 13 -1.5 35q0 12 -2 23.5q-2 11.5 -9.5 21q-7.5 9.5 -22.5 15q-15 5.5 -43 5.5h-53v-145h-65zM119 350q0 -62 22 -116q22 -54 60.5 -94.5q38.5 -40.5 90 -63.5q51.5 -23 111.5 -23q60 0 111.5 23q51.5 23 90 63.5q38.5 40.5 60.5 94.5q22 54 22 116q0 62 -22 116q-22 54 -60.5 94.5q-38.5 40.5 -90 63.5q-51.5 23 -111.5 23q-60 0 -111.5 -23q-51.5 -23 -90 -63.5q-38.5 -40.5 -60.5 -94.5q-22 -54 -22 -116zt0 0zM53 350q0 72 27 136q27 64 74.5 111.5q47.5 47.5 111 75q63.5 27.5 137.5 27.5q73 0 137 -27.5q64 -27.5 111.5 -75q47.5 -47.5 74.5 -111.5q27 -64 27 -136q0 -72 -27 -136q-27 -64 -74.5 -111.5q-47.5 -47.5 -111.5 -75q-64 -27.5 -137 -27.5q-74 0 -137.5 27.5q-63.5 27.5 -111 75q-47.5 47.5 -74.5 111.5t-27 136z" />
<glyph unicode="&#175;" horiz-adv-x="416" d="M50 673h316v-60h-158l-158 0z" />
<glyph unicode="&#176;" horiz-adv-x="266" d="M83 605q0 -20 15 -35q15 -15 35 -15q20 0 35 15q15 15 15 35q0 20 -15 35q-15 15 -35 15q-20 0 -35 -15q-15 -15 -15 -35zt0 0zM37 605q0 40 28 68q28 28 68 28q40 0 68 -28q28 -28 28 -68q0 -40 -28 -68q-28 -28 -68 -28q-40 0 -68 28t-28 68z" />
<glyph unicode="&#177;" horiz-adv-x="600" d="M550 142v-62h-500v62zM269 451v199h62v-199h219v-62h-219v-179h-62v179h-219l0 62z" />
<glyph unicode="&#178;" horiz-adv-x="360" d="M322 280h-285q1 38 11 65q10 27 28.5 48.5q18.5 21.5 44.5 39.5q26 18 58 38q18 11 33.5 22.5q15.5 11.5 27 24.5q11.5 13 18.5 29.5q7 16.5 7 37.5q0 12 -3.5 26q-3.5 14 -12.5 26q-9 12 -25.5 20q-16.5 8 -42.5 8q-42 0 -64.5 -22.5q-22.5 -22.5 -22.5 -60.5v-16h-56v13q0 9 3.5 31.5q3.5 22.5 18 45q14.5 22.5 43 40q28.5 17.5 79.5 17.5q63 0 102 -33q39 -33 39 -95q0 -34 -12 -58.5q-12 -24.5 -31.5 -43.5q-19.5 -19 -43.5 -34q-24 -15 -48 -30q-47 -30 -65.5 -50q-18.5 -20 -22.5 -41l222 0z" />
<glyph unicode="&#179;" horiz-adv-x="360" d="M88 408q0 -29 10 -47q10 -18 24 -28.5q14 -10.5 29 -14q15 -3.5 27 -3.5q8 0 23.5 2q15.5 2 30.5 10.5q15 8.5 26.5 25.5q11.5 17 11.5 48q0 35 -20 54.5q-20 19.5 -54 19.5h-43v48h17q7 0 22 1.5q15 1.5 30 8q15 6.5 26.5 21q11.5 14.5 11.5 41.5q0 10 -3.5 22.5q-3.5 12.5 -12.5 23q-9 10.5 -25 17.5q-16 7 -40 7q-42 0 -61 -24q-19 -24 -21 -69l-52 0q0 22 5.5 47q5.5 25 20.5 46q15 21 41.5 34.5q26.5 13.5 68.5 13.5q61 0 97 -31q36 -31 36 -85q0 -21 -6.5 -37q-6.5 -16 -16.5 -27q-10 -11 -22 -18q-12 -7 -24 -11l0 -3q32 -5 56.5 -30.5q24.5 -25.5 24.5 -73.5q0 -61 -39.5 -95.5q-39.5 -34.5 -105.5 -34.5q-45 0 -73.5 14.5q-28.5 14.5 -44.5 35.5q-16 21 -22 45.5q-6 24.5 -7 45.5z" />
<glyph unicode="&#180;" horiz-adv-x="312" d="M270 700l-96 -132h-80l70 132z" />
<glyph unicode="&#181;" horiz-adv-x="580" d="M173 -185h-88v693h88v-277q0 -14 1.5 -44q1.5 -30 12 -60.5q10.5 -30.5 34.5 -53.5q24 -23 69 -23q43 0 66.5 21q23.5 21 34.5 50q11 29 13.5 59.5q2.5 30.5 2.5 50.5v277h88v-386q0 -11 1 -22.5q1 -11.5 5 -20.5q4 -9 12.5 -14.5q8.5 -5.5 24.5 -3.5l10 1v-62q-15 -2 -25 -3q-10 -1 -18 -1q-31 0 -50 6q-19 6 -29.5 15.5q-10.5 9.5 -14.5 21q-4 11.5 -4 23.5q-13 -25 -28 -41q-15 -16 -30.5 -25q-15.5 -9 -30.5 -12.5q-15 -3.5 -28 -3.5q-33 0 -65 18.5q-32 18.5 -52 53.5z" />
<glyph unicode="&#182;" horiz-adv-x="491" d="M362 700h62v-885h-62zM205 370q-35 1 -65 13.5q-30 12.5 -52 34.5q-22 22 -35 51.5q-13 29.5 -13 65.5q0 34 13 64.5q13 30.5 35.5 52.5q22.5 22 52.5 35q30 13 64 13h62v-885l-62 0z" />
<glyph unicode="&#183;" horiz-adv-x="250" d="M76 323h99v-110l-99 0z" />
<glyph unicode="&#184;" horiz-adv-x="298" d="M60 -176q8 -3 22 -5.5q14 -2.5 40 -2.5q34 0 48.5 10.5q14.5 10.5 14.5 26.5q0 15 -9 22.5q-9 7.5 -22 11q-13 3.5 -28 3.5q-15 0 -27 0h-17l15 52h32q43 0 69 -9.5q26 -9.5 40.5 -24q14.5 -14.5 19 -32q4.5 -17.5 4.5 -32.5q0 -13 -5 -27.5q-5 -14.5 -19 -27q-14 -12.5 -39 -21q-25 -8.5 -65 -8.5q-11 0 -33.5 1.5q-22.5 1.5 -57.5 6.5z" />
<glyph unicode="&#185;" horiz-adv-x="360" d="M85 625h12q38 0 67 20q29 20 34 55l39 0v-420h-56v316l-96 0z" />
<glyph unicode="&#186;" horiz-adv-x="385" d="M43 354h299v-31h-299zM99 557q0 -9 1.5 -30.5q1.5 -21.5 10.5 -43q9 -21.5 28 -38q19 -16.5 53 -16.5q34 0 53 16.5q19 16.5 28 38.5q9 22 11 43q2 21 2 30q0 46 -11.5 71.5q-11.5 25.5 -26.5 38q-15 12.5 -31 15q-16 2.5 -25 2.5q-9 0 -24.5 -2.5q-15.5 -2.5 -30.5 -15q-15 -12.5 -26.5 -38q-11.5 -25.5 -11.5 -71.5zt0 0zM43 557q0 27 6.5 56q6.5 29 23.5 53q17 24 46 39.5q29 15.5 73 15.5q45 0 74 -15.5q29 -15.5 46 -39.5q17 -24 23.5 -53q6.5 -29 6.5 -56q0 -27 -6.5 -56q-6.5 -29 -23.5 -53.5q-17 -24.5 -46 -40q-29 -15.5 -74 -15.5q-44 0 -73 15.5q-29 15.5 -46 40q-17 24.5 -23.5 53.5t-6.5 56z" />
<glyph unicode="&#187;" horiz-adv-x="462" d="M75 362v82l149 -131v-82l-149 -131v82l106 90zM251 362v82l149 -131v-82l-149 -131v82l106 90z" />
<glyph unicode="&#188;" horiz-adv-x="820" d="M627 700h56l-450 -700h-56zM85 625h12q38 0 67 20q29 20 34 55l39 0v-420h-56v316h-96zM678 145v201l-144 -201zM480 97v48l197 275h57v-275h66v-48h-66v-97h-56l0 97z" />
<glyph unicode="&#189;" horiz-adv-x="820" d="M587 700h56l-450 -700h-56zM782 0h-285q1 38 11 65q10 27 28.5 48.5q18.5 21.5 44.5 39.5q26 18 58 38q18 11 33.5 22.5q15.5 11.5 27 24.5q11.5 13 18.5 29.5q7 16.5 7 37.5q0 12 -3.5 26q-3.5 14 -12.5 26q-9 12 -25.5 20q-16.5 8 -42.5 8q-42 0 -64.5 -22.5q-22.5 -22.5 -22.5 -60.5v-16h-56v13q0 9 3.5 31.5q3.5 22.5 18 45q14.5 22.5 43 40q28.5 17.5 79.5 17.5q63 0 102 -33q39 -33 39 -95q0 -34 -12 -58.5q-12 -24.5 -31.5 -43.5q-19.5 -19 -43.5 -34q-24 -15 -48 -30q-47 -30 -65.5 -50q-18.5 -20 -22.5 -41l222 0zM85 625h12q38 0 67 20q29 20 34 55l39 0v-420h-56v316l-96 0z" />
<glyph unicode="&#190;" horiz-adv-x="820" d="M647 700h56l-450 -700h-56zM678 145v201l-144 -201zM480 97v48l197 275h57v-275h66v-48h-66v-97h-56v97zM88 408q0 -29 10 -47q10 -18 24 -28.5q14 -10.5 29 -14q15 -3.5 27 -3.5q8 0 23.5 2q15.5 2 30.5 10.5q15 8.5 26.5 25.5q11.5 17 11.5 48q0 35 -20 54.5q-20 19.5 -54 19.5h-43v48h17q7 0 22 1.5q15 1.5 30 8q15 6.5 26.5 21q11.5 14.5 11.5 41.5q0 10 -3.5 22.5q-3.5 12.5 -12.5 23q-9 10.5 -25 17.5q-16 7 -40 7q-42 0 -61 -24q-19 -24 -21 -69l-52 0q0 22 5.5 47q5.5 25 20.5 46q15 21 41.5 34.5q26.5 13.5 68.5 13.5q61 0 97 -31q36 -31 36 -85q0 -21 -6.5 -37q-6.5 -16 -16.5 -27q-10 -11 -22 -18q-12 -7 -24 -11l0 -3q32 -5 56.5 -30.5q24.5 -25.5 24.5 -73.5q0 -61 -39.5 -95.5q-39.5 -34.5 -105.5 -34.5q-45 0 -73.5 14.5q-28.5 14.5 -44.5 35.5q-16 21 -22 45.5q-6 24.5 -7 45.5z" />
<glyph unicode="&#191;" horiz-adv-x="548" d="M495 26q2 -75 -19.5 -120q-21.5 -45 -54.5 -69q-33 -24 -72 -31.5q-39 -7.5 -73 -7.5q-50 0 -91 12q-41 12 -70 35.5q-29 23.5 -45.5 57q-16.5 33.5 -16.5 76.5q0 30 6.5 53q6.5 23 19.5 44q13 21 32.5 40.5q19.5 19.5 45.5 41.5q14 12 29 25.5q15 13.5 27.5 30q12.5 16.5 20.5 36q8 19.5 8 42.5v14h72q5 -40 -7.5 -80q-12.5 -40 -36.5 -66q-20 -21 -43 -39.5q-23 -18.5 -42 -38.5q-19 -20 -31.5 -44q-12.5 -24 -12.5 -55q0 -17 6 -36.5q6 -19.5 21.5 -36.5q15.5 -17 41.5 -28.5q26 -11.5 67 -11.5q45 0 71.5 16.5q26.5 16.5 40.5 40.5q14 24 17.5 51q3.5 27 1.5 48zM328 399h-99v109l99 0z" />
<glyph unicode="&#192;" horiz-adv-x="622" d="M433 260l-122 345l-122 -345zM97 0h-101l265 700h100l265 -700h-101l-66 181h-296zM378 760h-84l-103 140l112 0z" />
<glyph unicode="&#193;" horiz-adv-x="622" d="M433 260l-122 345l-122 -345zM97 0h-101l265 700h100l265 -700h-101l-66 181h-296zM430 900l-102 -140h-84l74 140z" />
<glyph unicode="&#194;" horiz-adv-x="622" d="M433 260l-122 345l-122 -345zM97 0h-101l265 700h100l265 -700h-101l-66 181h-296zM240 900h142l125 -140h-94l-102 105l-102 -105l-94 0z" />
<glyph unicode="&#195;" horiz-adv-x="622" d="M433 260l-122 345l-122 -345zM97 0h-101l265 700h100l265 -700h-101l-66 181h-296zM507 868q-3 -19 -11 -38.5q-8 -19.5 -22.5 -35q-14.5 -15.5 -35 -25q-20.5 -9.5 -47.5 -9.5q-27 0 -45 7.5q-18 7.5 -43 19.5q-20 10 -35 17.5q-15 7.5 -35 7.5q-21 0 -37 -10.5q-16 -10.5 -19 -30.5l-62 0q3 20 12.5 39q9.5 19 24.5 33.5q15 14.5 35.5 23.5q20.5 9 45.5 9q32 0 49.5 -8q17.5 -8 28.5 -15q23 -14 42 -21.5q19 -7.5 36 -7.5q17 0 34.5 10q17.5 10 22.5 34z" />
<glyph unicode="&#196;" horiz-adv-x="622" d="M433 260l-122 345l-122 -345zM97 0h-101l265 700h100l265 -700h-101l-66 181h-296zM372 851h94v-79h-94zM156 851h94v-79l-94 0z" />
<glyph unicode="&#197;" horiz-adv-x="622" d="M433 260l-122 345l-122 -345zM97 0h-101l265 700h100l265 -700h-101l-66 181h-296zM255 822q0 -23 16.5 -39.5q16.5 -16.5 39.5 -16.5q23 0 39.5 16.5q16.5 16.5 16.5 39.5q0 23 -16.5 39.5q-16.5 16.5 -39.5 16.5q-23 0 -39.5 -16.5q-16.5 -16.5 -16.5 -39.5zt0 0zM213 822q0 41 28.5 69.5q28.5 28.5 69.5 28.5q41 0 69.5 -28.5q28.5 -28.5 28.5 -69.5q0 -41 -28.5 -69.5q-28.5 -28.5 -69.5 -28.5q-41 0 -69.5 28.5t-28.5 69.5z" />
<glyph unicode="&#198;" horiz-adv-x="996" d="M470 621h-27l-195 -361h222zM470 181h-264l-99 -181h-111l390 700h583v-79h-405v-220h366v-79h-366v-243h415v-79l-509 0z" />
<glyph unicode="&#199;" horiz-adv-x="712" d="M674 232q-5 -38 -20 -82q-15 -44 -48.5 -82q-33.5 -38 -88.5 -63.5q-55 -25.5 -139 -25.5q-78 0 -140 24.5q-62 24.5 -104.5 71q-42.5 46.5 -65.5 113q-23 66.5 -23 150.5q0 93 20.5 157.5q20.5 64.5 52 107q31.5 42.5 70.5 66.5q39 24 75.5 35.5q36.5 11.5 66.5 14q30 2.5 45 2.5q84 0 138 -22q54 -22 86.5 -56.5q32.5 -34.5 47 -76.5q14.5 -42 18.5 -82l-94 0q-2 19 -10.5 46q-8.5 27 -29.5 52q-21 25 -58.5 42.5q-37.5 17.5 -97.5 17.5q-66 0 -110 -25.5q-44 -25.5 -70.5 -67.5q-26.5 -42 -38 -96q-11.5 -54 -11.5 -111q0 -61 16 -113q16 -52 47 -90q31 -38 74.5 -59.5q43.5 -21.5 99.5 -21.5q42 0 77.5 13q35.5 13 61.5 36.5q26 23.5 41.5 55q15.5 31.5 17.5 69.5zM267 -176q8 -3 22 -5.5q14 -2.5 40 -2.5q34 0 48.5 10.5q14.5 10.5 14.5 26.5q0 15 -9 22.5q-9 7.5 -22 11q-13 3.5 -28 3.5q-15 0 -27 0h-17l15 52h32q43 0 69 -9.5q26 -9.5 40.5 -24q14.5 -14.5 19 -32q4.5 -17.5 4.5 -32.5q0 -13 -5 -27.5q-5 -14.5 -19 -27q-14 -12.5 -39 -21q-25 -8.5 -65 -8.5q-11 0 -33.5 1.5q-22.5 1.5 -57.5 6.5z" />
<glyph unicode="&#200;" horiz-adv-x="612" d="M546 401v-79h-367v-243h416v-79h-510v700h499v-79h-405v-220zM373 760h-84l-103 140l112 0z" />
<glyph unicode="&#201;" horiz-adv-x="612" d="M546 401v-79h-367v-243h416v-79h-510v700h499v-79h-405v-220zM425 900l-102 -140h-84l74 140z" />
<glyph unicode="&#202;" horiz-adv-x="612" d="M546 401v-79h-367v-243h416v-79h-510v700h499v-79h-405v-220zM235 900h142l125 -140h-94l-102 105l-102 -105l-94 0z" />
<glyph unicode="&#203;" horiz-adv-x="612" d="M546 401v-79h-367v-243h416v-79h-510v700h499v-79h-405v-220zM367 851h94v-79h-94zM151 851h94v-79l-94 0z" />
<glyph unicode="&#204;" horiz-adv-x="264" d="M179 700v-700h-94v700zM200 760h-84l-103 140l112 0z" />
<glyph unicode="&#205;" horiz-adv-x="264" d="M179 700v-700h-94v700zM251 900l-102 -140h-84l74 140z" />
<glyph unicode="&#206;" horiz-adv-x="264" d="M179 700v-700h-94v700zM61 900h142l125 -140h-94l-102 105l-102 -105l-94 0z" />
<glyph unicode="&#207;" horiz-adv-x="264" d="M179 700v-700h-94v700zM193 851h94v-79h-94zM-23 851h94v-79l-94 0z" />
<glyph unicode="&#208;" horiz-adv-x="728" d="M188 428h198v-62h-198v-287h131q135 0 200 65.5q65 65.5 65 205.5q0 79 -20.5 131.5q-20.5 52.5 -54 83.5q-33.5 31 -76 43.5q-42.5 12.5 -87.5 12.5h-158zM351 700q18 0 49.5 -2q31.5 -2 68.5 -12.5q37 -10.5 75.5 -32q38.5 -21.5 69.5 -60q31 -38.5 50.5 -97.5q19.5 -59 19.5 -144q0 -86 -19 -145.5q-19 -59.5 -50 -98.5q-31 -39 -70.5 -61q-39.5 -22 -80.5 -32.5q-41 -10.5 -79.5 -12.5q-38.5 -2 -68.5 -2h-222v366h-94v62h94l0 272z" />
<glyph unicode="&#209;" horiz-adv-x="740" d="M179 0h-94v700h104l372 -555v555h94v-700h-103l-373 555zM566 868q-3 -19 -11 -38.5q-8 -19.5 -22.5 -35q-14.5 -15.5 -35 -25q-20.5 -9.5 -47.5 -9.5q-27 0 -45 7.5q-18 7.5 -43 19.5q-20 10 -35 17.5q-15 7.5 -35 7.5q-21 0 -37 -10.5q-16 -10.5 -19 -30.5l-62 0q3 20 12.5 39q9.5 19 24.5 33.5q15 14.5 35.5 23.5q20.5 9 45.5 9q32 0 49.5 -8q17.5 -8 28.5 -15q23 -14 42 -21.5q19 -7.5 36 -7.5q17 0 34.5 10q17.5 10 22.5 34z" />
<glyph unicode="&#210;" horiz-adv-x="758" d="M145 350q0 -42 8.5 -93q8.5 -51 33.5 -95.5q25 -44.5 71 -74q46 -29.5 121 -29.5q12 0 34 2q22 2 48 11q26 9 53 27.5q27 18.5 49 50.5q22 32 36 81q14 49 14 120q0 62 -14 115.5q-14 53.5 -42.5 92.5q-28.5 39 -73 61.5q-44.5 22.5 -104.5 22.5q-53 0 -91.5 -16.5q-38.5 -16.5 -64.5 -42.5q-26 -26 -41.5 -58.5q-15.5 -32.5 -23.5 -65q-8 -32.5 -10.5 -61.5q-2.5 -29 -2.5 -48zt0 0zM45 350q0 92 25 161.5q25 69.5 69 116q44 46.5 105.5 70q61.5 23.5 134.5 23.5q58 0 117.5 -18q59.5 -18 107.5 -60.5q48 -42.5 78.5 -114q30.5 -71.5 30.5 -178.5q0 -91 -22 -154.5q-22 -63.5 -55.5 -104.5q-33.5 -41 -73.5 -63.5q-40 -22.5 -77 -33.5q-37 -11 -66 -13q-29 -2 -40 -2q-11 0 -40.5 2q-29.5 2 -66.5 13q-37 11 -77 33.5q-40 22.5 -73.5 63.5q-33.5 41 -55 104q-21.5 63 -21.5 155zt0 0zM446 760h-84l-103 140l112 0z" />
<glyph unicode="&#211;" horiz-adv-x="758" d="M145 350q0 -42 8.5 -93q8.5 -51 33.5 -95.5q25 -44.5 71 -74q46 -29.5 121 -29.5q12 0 34 2q22 2 48 11q26 9 53 27.5q27 18.5 49 50.5q22 32 36 81q14 49 14 120q0 62 -14 115.5q-14 53.5 -42.5 92.5q-28.5 39 -73 61.5q-44.5 22.5 -104.5 22.5q-53 0 -91.5 -16.5q-38.5 -16.5 -64.5 -42.5q-26 -26 -41.5 -58.5q-15.5 -32.5 -23.5 -65q-8 -32.5 -10.5 -61.5q-2.5 -29 -2.5 -48zt0 0zM45 350q0 92 25 161.5q25 69.5 69 116q44 46.5 105.5 70q61.5 23.5 134.5 23.5q58 0 117.5 -18q59.5 -18 107.5 -60.5q48 -42.5 78.5 -114q30.5 -71.5 30.5 -178.5q0 -91 -22 -154.5q-22 -63.5 -55.5 -104.5q-33.5 -41 -73.5 -63.5q-40 -22.5 -77 -33.5q-37 -11 -66 -13q-29 -2 -40 -2q-11 0 -40.5 2q-29.5 2 -66.5 13q-37 11 -77 33.5q-40 22.5 -73.5 63.5q-33.5 41 -55 104q-21.5 63 -21.5 155zt0 0zM498 900l-102 -140h-84l74 140z" />
<glyph unicode="&#212;" horiz-adv-x="758" d="M145 350q0 -42 8.5 -93q8.5 -51 33.5 -95.5q25 -44.5 71 -74q46 -29.5 121 -29.5q12 0 34 2q22 2 48 11q26 9 53 27.5q27 18.5 49 50.5q22 32 36 81q14 49 14 120q0 62 -14 115.5q-14 53.5 -42.5 92.5q-28.5 39 -73 61.5q-44.5 22.5 -104.5 22.5q-53 0 -91.5 -16.5q-38.5 -16.5 -64.5 -42.5q-26 -26 -41.5 -58.5q-15.5 -32.5 -23.5 -65q-8 -32.5 -10.5 -61.5q-2.5 -29 -2.5 -48zt0 0zM45 350q0 92 25 161.5q25 69.5 69 116q44 46.5 105.5 70q61.5 23.5 134.5 23.5q58 0 117.5 -18q59.5 -18 107.5 -60.5q48 -42.5 78.5 -114q30.5 -71.5 30.5 -178.5q0 -91 -22 -154.5q-22 -63.5 -55.5 -104.5q-33.5 -41 -73.5 -63.5q-40 -22.5 -77 -33.5q-37 -11 -66 -13q-29 -2 -40 -2q-11 0 -40.5 2q-29.5 2 -66.5 13q-37 11 -77 33.5q-40 22.5 -73.5 63.5q-33.5 41 -55 104q-21.5 63 -21.5 155zt0 0zM308 900h142l125 -140h-94l-102 105l-102 -105l-94 0z" />
<glyph unicode="&#213;" horiz-adv-x="758" d="M145 350q0 -42 8.5 -93q8.5 -51 33.5 -95.5q25 -44.5 71 -74q46 -29.5 121 -29.5q12 0 34 2q22 2 48 11q26 9 53 27.5q27 18.5 49 50.5q22 32 36 81q14 49 14 120q0 62 -14 115.5q-14 53.5 -42.5 92.5q-28.5 39 -73 61.5q-44.5 22.5 -104.5 22.5q-53 0 -91.5 -16.5q-38.5 -16.5 -64.5 -42.5q-26 -26 -41.5 -58.5q-15.5 -32.5 -23.5 -65q-8 -32.5 -10.5 -61.5q-2.5 -29 -2.5 -48zt0 0zM45 350q0 92 25 161.5q25 69.5 69 116q44 46.5 105.5 70q61.5 23.5 134.5 23.5q58 0 117.5 -18q59.5 -18 107.5 -60.5q48 -42.5 78.5 -114q30.5 -71.5 30.5 -178.5q0 -91 -22 -154.5q-22 -63.5 -55.5 -104.5q-33.5 -41 -73.5 -63.5q-40 -22.5 -77 -33.5q-37 -11 -66 -13q-29 -2 -40 -2q-11 0 -40.5 2q-29.5 2 -66.5 13q-37 11 -77 33.5q-40 22.5 -73.5 63.5q-33.5 41 -55 104q-21.5 63 -21.5 155zt0 0zM575 868q-3 -19 -11 -38.5q-8 -19.5 -22.5 -35q-14.5 -15.5 -35 -25q-20.5 -9.5 -47.5 -9.5q-27 0 -45 7.5q-18 7.5 -43 19.5q-20 10 -35 17.5q-15 7.5 -35 7.5q-21 0 -37 -10.5q-16 -10.5 -19 -30.5l-62 0q3 20 12.5 39q9.5 19 24.5 33.5q15 14.5 35.5 23.5q20.5 9 45.5 9q32 0 49.5 -8q17.5 -8 28.5 -15q23 -14 42 -21.5q19 -7.5 36 -7.5q17 0 34.5 10q17.5 10 22.5 34z" />
<glyph unicode="&#214;" horiz-adv-x="758" d="M145 350q0 -42 8.5 -93q8.5 -51 33.5 -95.5q25 -44.5 71 -74q46 -29.5 121 -29.5q12 0 34 2q22 2 48 11q26 9 53 27.5q27 18.5 49 50.5q22 32 36 81q14 49 14 120q0 62 -14 115.5q-14 53.5 -42.5 92.5q-28.5 39 -73 61.5q-44.5 22.5 -104.5 22.5q-53 0 -91.5 -16.5q-38.5 -16.5 -64.5 -42.5q-26 -26 -41.5 -58.5q-15.5 -32.5 -23.5 -65q-8 -32.5 -10.5 -61.5q-2.5 -29 -2.5 -48zt0 0zM45 350q0 92 25 161.5q25 69.5 69 116q44 46.5 105.5 70q61.5 23.5 134.5 23.5q58 0 117.5 -18q59.5 -18 107.5 -60.5q48 -42.5 78.5 -114q30.5 -71.5 30.5 -178.5q0 -91 -22 -154.5q-22 -63.5 -55.5 -104.5q-33.5 -41 -73.5 -63.5q-40 -22.5 -77 -33.5q-37 -11 -66 -13q-29 -2 -40 -2q-11 0 -40.5 2q-29.5 2 -66.5 13q-37 11 -77 33.5q-40 22.5 -73.5 63.5q-33.5 41 -55 104q-21.5 63 -21.5 155zt0 0zM440 851h94v-79h-94zM224 851h94v-79l-94 0z" />
<glyph unicode="&#215;" horiz-adv-x="600" d="M256 349l-191 191l44 44l191 -191l191 191l44 -44l-191 -191l191 -191l-44 -44l-191 191l-191 -191l-44 44z" />
<glyph unicode="&#216;" horiz-adv-x="758" d="M533 585q-14 14 -33.5 25q-19.5 11 -40.5 18q-21 7 -42.5 10.5q-21.5 3.5 -37.5 3.5q-19 0 -43.5 -3.5q-24.5 -3.5 -50.5 -14.5q-26 -11 -51.5 -30.5q-25.5 -19.5 -45 -52q-19.5 -32.5 -31.5 -79.5q-12 -47 -12 -112q0 -41 4.5 -71q4.5 -30 10.5 -52q6 -22 12.5 -36.5q6.5 -14.5 11.5 -23.5zM219 119q7 -8 19.5 -18.5q12.5 -10.5 32 -20q19.5 -9.5 46.5 -16q27 -6.5 62 -6.5q12 0 34 2q22 2 48 11q26 9 53 27.5q27 18.5 49 50.5q22 32 36 81q14 49 14 120q0 47 -9 93q-9 46 -35 93zM632 611q13 -16 27 -38q14 -22 26 -53.5q12 -31.5 20 -73q8 -41.5 8 -96.5q0 -91 -22 -154.5q-22 -63.5 -55.5 -104.5q-33.5 -41 -73.5 -63.5q-40 -22.5 -77 -33.5q-37 -11 -66 -13q-29 -2 -40 -2q-20 0 -47 2q-27 2 -56.5 9.5q-29.5 7.5 -59 21.5q-29.5 14 -55.5 38l-94 -113l-45 37l99 118q-11 14 -24 35.5q-13 21.5 -24.5 53q-11.5 31.5 -19.5 73.5q-8 42 -8 96q0 92 25 161.5q25 69.5 69 116q44 46.5 105.5 70q61.5 23.5 134.5 23.5q56 0 114.5 -16.5q58.5 -16.5 96.5 -51.5l81 97l49 -34z" />
<glyph unicode="&#217;" horiz-adv-x="696" d="M166 700v-417q0 -32 3.5 -71.5q3.5 -39.5 21.5 -73.5q18 -34 54.5 -57q36.5 -23 102.5 -23q52 0 87 14.5q35 14.5 56 43q21 28.5 30 70.5q9 42 9 97v417h94v-429q0 -71 -15 -120.5q-15 -49.5 -39.5 -82q-24.5 -32.5 -55 -50.5q-30.5 -18 -61.5 -26.5q-31 -8.5 -58.5 -10.5q-27.5 -2 -46.5 -2q-64 0 -109 13.5q-45 13.5 -76 35.5q-31 22 -49 52q-18 30 -27.5 62q-9.5 32 -12 65.5q-2.5 33.5 -2.5 63.5v429zM415 760h-84l-103 140l112 0z" />
<glyph unicode="&#218;" horiz-adv-x="696" d="M166 700v-417q0 -32 3.5 -71.5q3.5 -39.5 21.5 -73.5q18 -34 54.5 -57q36.5 -23 102.5 -23q52 0 87 14.5q35 14.5 56 43q21 28.5 30 70.5q9 42 9 97v417h94v-429q0 -71 -15 -120.5q-15 -49.5 -39.5 -82q-24.5 -32.5 -55 -50.5q-30.5 -18 -61.5 -26.5q-31 -8.5 -58.5 -10.5q-27.5 -2 -46.5 -2q-64 0 -109 13.5q-45 13.5 -76 35.5q-31 22 -49 52q-18 30 -27.5 62q-9.5 32 -12 65.5q-2.5 33.5 -2.5 63.5v429zM467 900l-102 -140h-84l74 140z" />
<glyph unicode="&#219;" horiz-adv-x="696" d="M166 700v-417q0 -32 3.5 -71.5q3.5 -39.5 21.5 -73.5q18 -34 54.5 -57q36.5 -23 102.5 -23q52 0 87 14.5q35 14.5 56 43q21 28.5 30 70.5q9 42 9 97v417h94v-429q0 -71 -15 -120.5q-15 -49.5 -39.5 -82q-24.5 -32.5 -55 -50.5q-30.5 -18 -61.5 -26.5q-31 -8.5 -58.5 -10.5q-27.5 -2 -46.5 -2q-64 0 -109 13.5q-45 13.5 -76 35.5q-31 22 -49 52q-18 30 -27.5 62q-9.5 32 -12 65.5q-2.5 33.5 -2.5 63.5v429zM277 900h142l125 -140h-94l-102 105l-102 -105l-94 0z" />
<glyph unicode="&#220;" horiz-adv-x="696" d="M166 700v-417q0 -32 3.5 -71.5q3.5 -39.5 21.5 -73.5q18 -34 54.5 -57q36.5 -23 102.5 -23q52 0 87 14.5q35 14.5 56 43q21 28.5 30 70.5q9 42 9 97v417h94v-429q0 -71 -15 -120.5q-15 -49.5 -39.5 -82q-24.5 -32.5 -55 -50.5q-30.5 -18 -61.5 -26.5q-31 -8.5 -58.5 -10.5q-27.5 -2 -46.5 -2q-64 0 -109 13.5q-45 13.5 -76 35.5q-31 22 -49 52q-18 30 -27.5 62q-9.5 32 -12 65.5q-2.5 33.5 -2.5 63.5v429zM409 851h94v-79h-94zM193 851h94v-79l-94 0z" />
<glyph unicode="&#221;" horiz-adv-x="605" d="M497 700h112l-259 -408v-292h-94v292l-260 408h112l195 -324zM405 900l-102 -140h-84l74 140z" />
<glyph unicode="&#222;" horiz-adv-x="639" d="M179 219h172q84 0 122 35q38 35 38 104q0 65 -39.5 94.5q-39.5 29.5 -120.5 29.5h-172zM179 700v-139h191q54 0 97.5 -11q43.5 -11 74.5 -35q31 -24 48 -62.5q17 -38.5 17 -92.5q0 -49 -13 -89.5q-13 -40.5 -42 -69.5q-29 -29 -76 -45q-47 -16 -115 -16h-182v-140h-94l0 700z" />
<glyph unicode="&#223;" horiz-adv-x="560" d="M72 455q0 42 5 87q5 45 26 81.5q21 36.5 63.5 60.5q42.5 24 117.5 24q48 0 83.5 -13q35.5 -13 59 -35.5q23.5 -22.5 35 -54q11.5 -31.5 11.5 -67.5q0 -24 -7 -47q-7 -23 -19 -41.5q-12 -18.5 -29 -31.5q-17 -13 -38 -18l0 -3q31 -6 57.5 -21.5q26.5 -15.5 45.5 -40q19 -24.5 30 -57q11 -32.5 11 -72.5q0 -52 -13.5 -88q-13.5 -36 -35 -59.5q-21.5 -23.5 -47 -37q-25.5 -13.5 -49 -19.5q-23.5 -6 -43 -7.5q-19.5 -1.5 -27.5 -1.5q-22 0 -40 2q-18 2 -35 5l0 65q16 -6 29.5 -7.5q13.5 -1.5 29.5 -1.5q10 0 33 3.5q23 3.5 47 18.5q24 15 42 45.5q18 30.5 18 84.5q0 53 -19 83q-19 30 -46 45q-27 15 -57 18.5q-30 3.5 -52 3.5h-25v61l31 -1q12 0 32 2q20 2 39.5 13.5q19.5 11.5 34 34.5q14.5 23 14.5 64q0 18 -4.5 38.5q-4.5 20.5 -16 37q-11.5 16.5 -31 27.5q-19.5 11 -50.5 11q-26 0 -48 -5.5q-22 -5.5 -39 -23.5q-17 -18 -26.5 -53.5q-9.5 -35.5 -9.5 -95.5v-468l-88 0z" />
<glyph unicode="&#224;" horiz-adv-x="553" d="M385 260q-10 -8 -21 -11.5q-11 -3.5 -24 -5.5q-13 -2 -29.5 -3.5q-16.5 -1.5 -37.5 -4.5q-29 -5 -55.5 -9.5q-26.5 -4.5 -46.5 -14q-20 -9.5 -31.5 -27.5q-11.5 -18 -11.5 -48q0 -45 27.5 -69.5q27.5 -24.5 70.5 -24.5q26 0 52.5 7.5q26.5 7.5 49 27q22.5 19.5 37.5 53.5q15 34 18 87zM55 358q0 25 8.5 55q8.5 30 32 55.5q23.5 25.5 66 42.5q42.5 17 109.5 17q31 0 66.5 -6q35.5 -6 66 -24q30.5 -18 50.5 -51.5q20 -33.5 19 -89.5l-5 -235q0 -15 0.5 -26.5q0.5 -11.5 5.5 -19q5 -7.5 16 -11.5q11 -4 31 -3l0 -62q-9 -2 -17.5 -3q-8.5 -1 -22.5 -1q-18 0 -33.5 2.5q-15.5 2.5 -27 10q-11.5 7.5 -19 22q-7.5 14.5 -11.5 39.5q-13 -24 -32 -41q-19 -17 -42 -28q-23 -11 -48.5 -16q-25.5 -5 -51.5 -5q-80 0 -129.5 36.5q-49.5 36.5 -49.5 116.5q0 33 10 59.5q10 26.5 38 47q28 20.5 76 34q48 13.5 125 20.5q28 2 47 4q19 2 30.5 8.5q11.5 6.5 16.5 19.5q5 13 5 38q0 9 -2 26q-2 17 -13 34q-11 17 -34 29.5q-23 12.5 -65 12.5q-12 0 -34.5 -2q-22.5 -2 -44.5 -12.5q-22 -10.5 -38 -32q-16 -21.5 -15 -61.5zM338 568h-80l-96 132l106 0z" />
<glyph unicode="&#225;" horiz-adv-x="553" d="M385 260q-10 -8 -21 -11.5q-11 -3.5 -24 -5.5q-13 -2 -29.5 -3.5q-16.5 -1.5 -37.5 -4.5q-29 -5 -55.5 -9.5q-26.5 -4.5 -46.5 -14q-20 -9.5 -31.5 -27.5q-11.5 -18 -11.5 -48q0 -45 27.5 -69.5q27.5 -24.5 70.5 -24.5q26 0 52.5 7.5q26.5 7.5 49 27q22.5 19.5 37.5 53.5q15 34 18 87zM55 358q0 25 8.5 55q8.5 30 32 55.5q23.5 25.5 66 42.5q42.5 17 109.5 17q31 0 66.5 -6q35.5 -6 66 -24q30.5 -18 50.5 -51.5q20 -33.5 19 -89.5l-5 -235q0 -15 0.5 -26.5q0.5 -11.5 5.5 -19q5 -7.5 16 -11.5q11 -4 31 -3l0 -62q-9 -2 -17.5 -3q-8.5 -1 -22.5 -1q-18 0 -33.5 2.5q-15.5 2.5 -27 10q-11.5 7.5 -19 22q-7.5 14.5 -11.5 39.5q-13 -24 -32 -41q-19 -17 -42 -28q-23 -11 -48.5 -16q-25.5 -5 -51.5 -5q-80 0 -129.5 36.5q-49.5 36.5 -49.5 116.5q0 33 10 59.5q10 26.5 38 47q28 20.5 76 34q48 13.5 125 20.5q28 2 47 4q19 2 30.5 8.5q11.5 6.5 16.5 19.5q5 13 5 38q0 9 -2 26q-2 17 -13 34q-11 17 -34 29.5q-23 12.5 -65 12.5q-12 0 -34.5 -2q-22.5 -2 -44.5 -12.5q-22 -10.5 -38 -32q-16 -21.5 -15 -61.5zM390 700l-96 -132h-80l70 132z" />
<glyph unicode="&#226;" horiz-adv-x="553" d="M385 260q-10 -8 -21 -11.5q-11 -3.5 -24 -5.5q-13 -2 -29.5 -3.5q-16.5 -1.5 -37.5 -4.5q-29 -5 -55.5 -9.5q-26.5 -4.5 -46.5 -14q-20 -9.5 -31.5 -27.5q-11.5 -18 -11.5 -48q0 -45 27.5 -69.5q27.5 -24.5 70.5 -24.5q26 0 52.5 7.5q26.5 7.5 49 27q22.5 19.5 37.5 53.5q15 34 18 87zM55 358q0 25 8.5 55q8.5 30 32 55.5q23.5 25.5 66 42.5q42.5 17 109.5 17q31 0 66.5 -6q35.5 -6 66 -24q30.5 -18 50.5 -51.5q20 -33.5 19 -89.5l-5 -235q0 -15 0.5 -26.5q0.5 -11.5 5.5 -19q5 -7.5 16 -11.5q11 -4 31 -3l0 -62q-9 -2 -17.5 -3q-8.5 -1 -22.5 -1q-18 0 -33.5 2.5q-15.5 2.5 -27 10q-11.5 7.5 -19 22q-7.5 14.5 -11.5 39.5q-13 -24 -32 -41q-19 -17 -42 -28q-23 -11 -48.5 -16q-25.5 -5 -51.5 -5q-80 0 -129.5 36.5q-49.5 36.5 -49.5 116.5q0 33 10 59.5q10 26.5 38 47q28 20.5 76 34q48 13.5 125 20.5q28 2 47 4q19 2 30.5 8.5q11.5 6.5 16.5 19.5q5 13 5 38q0 9 -2 26q-2 17 -13 34q-11 17 -34 29.5q-23 12.5 -65 12.5q-12 0 -34.5 -2q-22.5 -2 -44.5 -12.5q-22 -10.5 -38 -32q-16 -21.5 -15 -61.5zM210 700h132l119 -132h-88l-97 99l-97 -99l-88 0z" />
<glyph unicode="&#227;" horiz-adv-x="553" d="M385 260q-10 -8 -21 -11.5q-11 -3.5 -24 -5.5q-13 -2 -29.5 -3.5q-16.5 -1.5 -37.5 -4.5q-29 -5 -55.5 -9.5q-26.5 -4.5 -46.5 -14q-20 -9.5 -31.5 -27.5q-11.5 -18 -11.5 -48q0 -45 27.5 -69.5q27.5 -24.5 70.5 -24.5q26 0 52.5 7.5q26.5 7.5 49 27q22.5 19.5 37.5 53.5q15 34 18 87zM55 358q0 25 8.5 55q8.5 30 32 55.5q23.5 25.5 66 42.5q42.5 17 109.5 17q31 0 66.5 -6q35.5 -6 66 -24q30.5 -18 50.5 -51.5q20 -33.5 19 -89.5l-5 -235q0 -15 0.5 -26.5q0.5 -11.5 5.5 -19q5 -7.5 16 -11.5q11 -4 31 -3l0 -62q-9 -2 -17.5 -3q-8.5 -1 -22.5 -1q-18 0 -33.5 2.5q-15.5 2.5 -27 10q-11.5 7.5 -19 22q-7.5 14.5 -11.5 39.5q-13 -24 -32 -41q-19 -17 -42 -28q-23 -11 -48.5 -16q-25.5 -5 -51.5 -5q-80 0 -129.5 36.5q-49.5 36.5 -49.5 116.5q0 33 10 59.5q10 26.5 38 47q28 20.5 76 34q48 13.5 125 20.5q28 2 47 4q19 2 30.5 8.5q11.5 6.5 16.5 19.5q5 13 5 38q0 9 -2 26q-2 17 -13 34q-11 17 -34 29.5q-23 12.5 -65 12.5q-12 0 -34.5 -2q-22.5 -2 -44.5 -12.5q-22 -10.5 -38 -32q-16 -21.5 -15 -61.5zM461 700q-3 -15 -10 -33q-7 -18 -20 -33.5q-13 -15.5 -33 -25.5q-20 -10 -48 -10q-24 0 -43.5 8q-19.5 8 -38.5 18q-16 8 -32.5 16q-16.5 8 -34.5 8q-16 0 -32.5 -8.5q-16.5 -8.5 -18.5 -31.5l-59 0q7 39 35 69.5q28 30.5 76 30.5q21 0 37 -5q16 -5 37 -17q14 -8 33 -18q19 -10 41 -10q19 0 33.5 12q14.5 12 19.5 30z" />
<glyph unicode="&#228;" horiz-adv-x="553" d="M385 260q-10 -8 -21 -11.5q-11 -3.5 -24 -5.5q-13 -2 -29.5 -3.5q-16.5 -1.5 -37.5 -4.5q-29 -5 -55.5 -9.5q-26.5 -4.5 -46.5 -14q-20 -9.5 -31.5 -27.5q-11.5 -18 -11.5 -48q0 -45 27.5 -69.5q27.5 -24.5 70.5 -24.5q26 0 52.5 7.5q26.5 7.5 49 27q22.5 19.5 37.5 53.5q15 34 18 87zM55 358q0 25 8.5 55q8.5 30 32 55.5q23.5 25.5 66 42.5q42.5 17 109.5 17q31 0 66.5 -6q35.5 -6 66 -24q30.5 -18 50.5 -51.5q20 -33.5 19 -89.5l-5 -235q0 -15 0.5 -26.5q0.5 -11.5 5.5 -19q5 -7.5 16 -11.5q11 -4 31 -3l0 -62q-9 -2 -17.5 -3q-8.5 -1 -22.5 -1q-18 0 -33.5 2.5q-15.5 2.5 -27 10q-11.5 7.5 -19 22q-7.5 14.5 -11.5 39.5q-13 -24 -32 -41q-19 -17 -42 -28q-23 -11 -48.5 -16q-25.5 -5 -51.5 -5q-80 0 -129.5 36.5q-49.5 36.5 -49.5 116.5q0 33 10 59.5q10 26.5 38 47q28 20.5 76 34q48 13.5 125 20.5q28 2 47 4q19 2 30.5 8.5q11.5 6.5 16.5 19.5q5 13 5 38q0 9 -2 26q-2 17 -13 34q-11 17 -34 29.5q-23 12.5 -65 12.5q-12 0 -34.5 -2q-22.5 -2 -44.5 -12.5q-22 -10.5 -38 -32q-16 -21.5 -15 -61.5zM331 700h88v-92h-88zM133 700h88v-92l-88 0z" />
<glyph unicode="&#229;" horiz-adv-x="553" d="M385 260q-10 -8 -21 -11.5q-11 -3.5 -24 -5.5q-13 -2 -29.5 -3.5q-16.5 -1.5 -37.5 -4.5q-29 -5 -55.5 -9.5q-26.5 -4.5 -46.5 -14q-20 -9.5 -31.5 -27.5q-11.5 -18 -11.5 -48q0 -45 27.5 -69.5q27.5 -24.5 70.5 -24.5q26 0 52.5 7.5q26.5 7.5 49 27q22.5 19.5 37.5 53.5q15 34 18 87zM55 358q0 25 8.5 55q8.5 30 32 55.5q23.5 25.5 66 42.5q42.5 17 109.5 17q31 0 66.5 -6q35.5 -6 66 -24q30.5 -18 50.5 -51.5q20 -33.5 19 -89.5l-5 -235q0 -15 0.5 -26.5q0.5 -11.5 5.5 -19q5 -7.5 16 -11.5q11 -4 31 -3l0 -62q-9 -2 -17.5 -3q-8.5 -1 -22.5 -1q-18 0 -33.5 2.5q-15.5 2.5 -27 10q-11.5 7.5 -19 22q-7.5 14.5 -11.5 39.5q-13 -24 -32 -41q-19 -17 -42 -28q-23 -11 -48.5 -16q-25.5 -5 -51.5 -5q-80 0 -129.5 36.5q-49.5 36.5 -49.5 116.5q0 33 10 59.5q10 26.5 38 47q28 20.5 76 34q48 13.5 125 20.5q28 2 47 4q19 2 30.5 8.5q11.5 6.5 16.5 19.5q5 13 5 38q0 9 -2 26q-2 17 -13 34q-11 17 -34 29.5q-23 12.5 -65 12.5q-12 0 -34.5 -2q-22.5 -2 -44.5 -12.5q-22 -10.5 -38 -32q-16 -21.5 -15 -61.5zM224 660q0 -22 15 -37q15 -15 37 -15q22 0 37 15q15 15 15 37q0 22 -15 37q-15 15 -37 15q-22 0 -37 -15q-15 -15 -15 -37zt0 0zM184 660q0 19 7 36q7 17 19.5 29.5q12.5 12.5 29.5 19.5q17 7 36 7q19 0 36 -7q17 -7 29.5 -19.5q12.5 -12.5 19.5 -29.5q7 -17 7 -36q0 -19 -7 -36q-7 -17 -19.5 -29.5q-12.5 -12.5 -29.5 -19.5q-17 -7 -36 -7q-19 0 -36 7q-17 7 -29.5 19.5q-12.5 12.5 -19.5 29.5t-7 36z" />
<glyph unicode="&#230;" horiz-adv-x="914" d="M780 296q1 26 -4.5 55.5q-5.5 29.5 -22 55q-16.5 25.5 -45 42.5q-28.5 17 -73.5 17q-41 0 -70.5 -14.5q-29.5 -14.5 -49 -38q-19.5 -23.5 -28.5 -54q-9 -30.5 -9 -63.5zM390 260q-11 -8 -21.5 -11.5q-10.5 -3.5 -24 -5.5q-13.5 -2 -30 -3.5q-16.5 -1.5 -38.5 -4.5q-29 -5 -56 -9.5q-27 -4.5 -47.5 -14q-20.5 -9.5 -32.5 -27.5q-12 -18 -12 -48q0 -16 5.5 -33q5.5 -17 17.5 -30.5q12 -13.5 31.5 -22q19.5 -8.5 48.5 -8.5q50 0 81 19q31 19 48.5 46.5q17.5 27.5 23.5 57.5q6 30 6 52zM60 358q-1 34 11 64.5q12 30.5 38.5 54q26.5 23.5 67.5 37.5q41 14 98 14q16 0 41 -2q25 -2 50.5 -11q25.5 -9 48 -26q22.5 -17 34.5 -47q20 31 46.5 48.5q26.5 17.5 52.5 26q26 8.5 49 10q23 1.5 35 1.5q34 0 75.5 -8.5q41.5 -8.5 78 -36.5q36.5 -28 61 -81q24.5 -53 24.5 -143v-25h-393q0 -29 7.5 -62.5q7.5 -33.5 25.5 -62.5q18 -29 49 -48q31 -19 78 -19q33 0 56.5 8.5q23.5 8.5 40.5 23q17 14.5 27 33.5q10 19 16 40l84 0q-5 -27 -18.5 -56.5q-13.5 -29.5 -38.5 -54q-25 -24.5 -64.5 -40.5q-39.5 -16 -96.5 -16q-24 0 -52.5 2.5q-28.5 2.5 -57 13.5q-28.5 11 -55.5 33q-27 22 -48 61q-20 -35 -44.5 -56.5q-24.5 -21.5 -50 -33.5q-25.5 -12 -52 -16q-26.5 -4 -51.5 -4q-23 0 -56.5 3q-33.5 3 -64.5 18q-31 15 -53 46q-22 31 -22 86q0 33 10.5 59.5q10.5 26.5 38 47q27.5 20.5 76.5 34.5q49 14 127 20q29 2 48.5 4q19.5 2 31 8.5q11.5 6.5 16.5 19.5q5 13 5 38q0 9 -2 26q-2 17 -13 34q-11 17 -34 29.5q-23 12.5 -65 12.5q-12 0 -34.5 -2q-22.5 -2 -44.5 -12.5q-22 -10.5 -38 -32q-16 -21.5 -15 -61.5z" />
<glyph unicode="&#231;" horiz-adv-x="548" d="M512 181q-2 -23 -11.5 -57q-9.5 -34 -33 -66q-23.5 -32 -66 -55q-42.5 -23 -110.5 -23q-13 0 -36 2q-23 2 -51 10q-28 8 -56.5 25.5q-28.5 17.5 -51.5 48q-23 30.5 -38 77.5q-15 47 -15 115q0 44 10 92q10 48 37 87.5q27 39.5 74 65q47 25.5 121 25.5q54 0 94 -14.5q40 -14.5 67 -39.5q27 -25 42.5 -57q15.5 -32 19.5 -68l-84 0q-7 42 -25 66q-18 24 -39 35q-21 11 -41.5 13.5q-20.5 2.5 -31.5 2.5q-41 0 -70 -16.5q-29 -16.5 -47 -44.5q-18 -28 -26 -66q-8 -38 -8 -81q0 -43 9 -82q9 -39 27.5 -69q18.5 -30 48.5 -47.5q30 -17.5 72 -17.5q37 0 62.5 14q25.5 14 41.5 34.5q16 20.5 23 45q7 24.5 8 45.5zM185 -176q8 -3 22 -5.5q14 -2.5 40 -2.5q34 0 48.5 10.5q14.5 10.5 14.5 26.5q0 15 -9 22.5q-9 7.5 -22 11q-13 3.5 -28 3.5q-15 0 -27 0h-17l15 52h32q43 0 69 -9.5q26 -9.5 40.5 -24q14.5 -14.5 19 -32q4.5 -17.5 4.5 -32.5q0 -13 -5 -27.5q-5 -14.5 -19 -27q-14 -12.5 -39 -21q-25 -8.5 -65 -8.5q-11 0 -33.5 1.5q-22.5 1.5 -57.5 6.5z" />
<glyph unicode="&#232;" horiz-adv-x="570" d="M434 296q-1 25 -7 55q-6 30 -21.5 55.5q-15.5 25.5 -42.5 42.5q-27 17 -70 17q-48 0 -79 -17.5q-31 -17.5 -48.5 -43.5q-17.5 -26 -23.5 -55.5q-6 -29.5 -6 -53.5zM522 147q-5 -27 -18.5 -56.5q-13.5 -29.5 -39 -54q-25.5 -24.5 -65.5 -40.5q-40 -16 -99 -16q-63 0 -106.5 17q-43.5 17 -72 43.5q-28.5 26.5 -44.5 58.5q-16 32 -23.5 62q-7.5 30 -9 54.5q-1.5 24.5 -1.5 36.5q0 17 2 44.5q2 27.5 10 58q8 30.5 24 61.5q16 31 43.5 56q27.5 25 68.5 40.5q41 15.5 100 15.5q76 0 121.5 -26.5q45.5 -26.5 70 -66.5q24.5 -40 33 -87.5q8.5 -47.5 10.5 -88.5q0 -6 0.5 -12.5q0.5 -6.5 0.5 -12.5l-391 0q0 -33 9 -67q9 -34 28 -61.5q19 -27.5 49.5 -45.5q30.5 -18 74.5 -18q31 0 56 8.5q25 8.5 42.5 23q17.5 14.5 28 33.5q10.5 19 14.5 40zM347 568h-80l-96 132l106 0z" />
<glyph unicode="&#233;" horiz-adv-x="570" d="M434 296q-1 25 -7 55q-6 30 -21.5 55.5q-15.5 25.5 -42.5 42.5q-27 17 -70 17q-48 0 -79 -17.5q-31 -17.5 -48.5 -43.5q-17.5 -26 -23.5 -55.5q-6 -29.5 -6 -53.5zM522 147q-5 -27 -18.5 -56.5q-13.5 -29.5 -39 -54q-25.5 -24.5 -65.5 -40.5q-40 -16 -99 -16q-63 0 -106.5 17q-43.5 17 -72 43.5q-28.5 26.5 -44.5 58.5q-16 32 -23.5 62q-7.5 30 -9 54.5q-1.5 24.5 -1.5 36.5q0 17 2 44.5q2 27.5 10 58q8 30.5 24 61.5q16 31 43.5 56q27.5 25 68.5 40.5q41 15.5 100 15.5q76 0 121.5 -26.5q45.5 -26.5 70 -66.5q24.5 -40 33 -87.5q8.5 -47.5 10.5 -88.5q0 -6 0.5 -12.5q0.5 -6.5 0.5 -12.5l-391 0q0 -33 9 -67q9 -34 28 -61.5q19 -27.5 49.5 -45.5q30.5 -18 74.5 -18q31 0 56 8.5q25 8.5 42.5 23q17.5 14.5 28 33.5q10.5 19 14.5 40zM399 700l-96 -132h-80l70 132z" />
<glyph unicode="&#234;" horiz-adv-x="570" d="M434 296q-1 25 -7 55q-6 30 -21.5 55.5q-15.5 25.5 -42.5 42.5q-27 17 -70 17q-48 0 -79 -17.5q-31 -17.5 -48.5 -43.5q-17.5 -26 -23.5 -55.5q-6 -29.5 -6 -53.5zM522 147q-5 -27 -18.5 -56.5q-13.5 -29.5 -39 -54q-25.5 -24.5 -65.5 -40.5q-40 -16 -99 -16q-63 0 -106.5 17q-43.5 17 -72 43.5q-28.5 26.5 -44.5 58.5q-16 32 -23.5 62q-7.5 30 -9 54.5q-1.5 24.5 -1.5 36.5q0 17 2 44.5q2 27.5 10 58q8 30.5 24 61.5q16 31 43.5 56q27.5 25 68.5 40.5q41 15.5 100 15.5q76 0 121.5 -26.5q45.5 -26.5 70 -66.5q24.5 -40 33 -87.5q8.5 -47.5 10.5 -88.5q0 -6 0.5 -12.5q0.5 -6.5 0.5 -12.5l-391 0q0 -33 9 -67q9 -34 28 -61.5q19 -27.5 49.5 -45.5q30.5 -18 74.5 -18q31 0 56 8.5q25 8.5 42.5 23q17.5 14.5 28 33.5q10.5 19 14.5 40zM219 700h132l119 -132h-88l-97 99l-97 -99l-88 0z" />
<glyph unicode="&#235;" horiz-adv-x="570" d="M434 296q-1 25 -7 55q-6 30 -21.5 55.5q-15.5 25.5 -42.5 42.5q-27 17 -70 17q-48 0 -79 -17.5q-31 -17.5 -48.5 -43.5q-17.5 -26 -23.5 -55.5q-6 -29.5 -6 -53.5zM522 147q-5 -27 -18.5 -56.5q-13.5 -29.5 -39 -54q-25.5 -24.5 -65.5 -40.5q-40 -16 -99 -16q-63 0 -106.5 17q-43.5 17 -72 43.5q-28.5 26.5 -44.5 58.5q-16 32 -23.5 62q-7.5 30 -9 54.5q-1.5 24.5 -1.5 36.5q0 17 2 44.5q2 27.5 10 58q8 30.5 24 61.5q16 31 43.5 56q27.5 25 68.5 40.5q41 15.5 100 15.5q76 0 121.5 -26.5q45.5 -26.5 70 -66.5q24.5 -40 33 -87.5q8.5 -47.5 10.5 -88.5q0 -6 0.5 -12.5q0.5 -6.5 0.5 -12.5l-391 0q0 -33 9 -67q9 -34 28 -61.5q19 -27.5 49.5 -45.5q30.5 -18 74.5 -18q31 0 56 8.5q25 8.5 42.5 23q17.5 14.5 28 33.5q10.5 19 14.5 40zM340 700h88v-92h-88zM142 700h88v-92l-88 0z" />
<glyph unicode="&#236;" horiz-adv-x="233" d="M161 508v-508h-89v508zM179 568h-80l-96 132l106 0z" />
<glyph unicode="&#237;" horiz-adv-x="233" d="M161 508v-508h-89v508zM231 700l-96 -132h-80l70 132z" />
<glyph unicode="&#238;" horiz-adv-x="233" d="M161 508v-508h-89v508zM51 700h132l119 -132h-88l-97 99l-97 -99l-88 0z" />
<glyph unicode="&#239;" horiz-adv-x="233" d="M161 508v-508h-89v508zM172 700h88v-92h-88zM-26 700h88v-92l-88 0z" />
<glyph unicode="&#240;" horiz-adv-x="605" d="M460 247q0 19 -4 52.5q-4 33.5 -20 66q-16 32.5 -48 56.5q-32 24 -89 24q-56 0 -87.5 -25q-31.5 -25 -47.5 -59.5q-16 -34.5 -20 -71.5q-4 -37 -4 -60q0 -63 16.5 -100.5q16.5 -37.5 40.5 -57q24 -19.5 51.5 -25q27.5 -5.5 50.5 -5.5q16 0 43 4.5q27 4.5 53.5 25q26.5 20.5 45.5 61.5q19 41 19 114zt0 0zM163 733q49 -8 92.5 -21q43.5 -13 81.5 -30l85 51l26 -32l-67 -40q55 -28 89 -65q34 -37 52.5 -80.5q18.5 -43.5 24.5 -92.5q6 -49 6 -100q0 -74 -12 -128.5q-12 -54.5 -32 -92.5q-20 -38 -46.5 -62q-26.5 -24 -56 -37q-29.5 -13 -59 -18q-29.5 -5 -56.5 -5q-56 0 -101 17.5q-45 17.5 -77 50.5q-32 33 -49 80.5q-17 47.5 -17 107.5q0 55 13 104q13 49 42.5 86.5q29.5 37.5 75.5 59.5q46 22 112 22q21 0 48 -4q27 -4 54 -16q27 -12 52 -34.5q25 -22.5 42 -60.5l3 0q-3 35 -13 68.5q-10 33.5 -29 64q-19 30.5 -48.5 56.5q-29.5 26 -70.5 46l-139 -84l-26 32l119 72q-68 28 -132 38z" />
<glyph unicode="&#241;" horiz-adv-x="573" d="M160 508v-71q26 38 70 64.5q44 26.5 104 26.5q50 0 82.5 -15.5q32.5 -15.5 51 -41.5q18.5 -26 26 -60.5q7.5 -34.5 7.5 -72.5v-338h-88v311q0 20 -1.5 47q-1.5 27 -11 51q-9.5 24 -31.5 40.5q-22 16.5 -63 16.5q-18 0 -43 -6q-25 -6 -48 -25.5q-23 -19.5 -39 -57q-16 -37.5 -16 -100.5v-277h-88v508zM471 700q-3 -15 -10 -33q-7 -18 -20 -33.5q-13 -15.5 -33 -25.5q-20 -10 -48 -10q-24 0 -43.5 8q-19.5 8 -38.5 18q-16 8 -32.5 16q-16.5 8 -34.5 8q-16 0 -32.5 -8.5q-16.5 -8.5 -18.5 -31.5l-59 0q7 39 35 69.5q28 30.5 76 30.5q21 0 37 -5q16 -5 37 -17q14 -8 33 -18q19 -10 41 -10q19 0 33.5 12q14.5 12 19.5 30z" />
<glyph unicode="&#242;" horiz-adv-x="586" d="M136 255q0 -76 19 -119q19 -43 45 -64q26 -21 52 -25.5q26 -4.5 41 -4.5q15 0 41 4.5q26 4.5 52 25.5q26 21 45 64q19 43 19 119q0 76 -19 119q-19 43 -45 64q-26 21 -52 25.5q-26 4.5 -41 4.5q-15 0 -41 -4.5q-26 -4.5 -52 -25.5q-26 -21 -45 -64q-19 -43 -19 -119zt0 0zM43 254q0 51 13 100q13 49 42.5 87.5q29.5 38.5 77.5 62.5q48 24 117 24q69 0 117 -24q48 -24 77.5 -62.5q29.5 -38.5 42.5 -87.5q13 -49 13 -100q0 -51 -13 -100q-13 -49 -42.5 -87.5q-29.5 -38.5 -77.5 -62.5q-48 -24 -117 -24q-69 0 -117 24q-48 24 -77.5 62.5q-29.5 38.5 -42.5 87.5q-13 49 -13 100zt0 0zM355 568h-80l-96 132l106 0z" />
<glyph unicode="&#243;" horiz-adv-x="586" d="M136 255q0 -76 19 -119q19 -43 45 -64q26 -21 52 -25.5q26 -4.5 41 -4.5q15 0 41 4.5q26 4.5 52 25.5q26 21 45 64q19 43 19 119q0 76 -19 119q-19 43 -45 64q-26 21 -52 25.5q-26 4.5 -41 4.5q-15 0 -41 -4.5q-26 -4.5 -52 -25.5q-26 -21 -45 -64q-19 -43 -19 -119zt0 0zM43 254q0 51 13 100q13 49 42.5 87.5q29.5 38.5 77.5 62.5q48 24 117 24q69 0 117 -24q48 -24 77.5 -62.5q29.5 -38.5 42.5 -87.5q13 -49 13 -100q0 -51 -13 -100q-13 -49 -42.5 -87.5q-29.5 -38.5 -77.5 -62.5q-48 -24 -117 -24q-69 0 -117 24q-48 24 -77.5 62.5q-29.5 38.5 -42.5 87.5q-13 49 -13 100zt0 0zM407 700l-96 -132h-80l70 132z" />
<glyph unicode="&#244;" horiz-adv-x="586" d="M136 255q0 -76 19 -119q19 -43 45 -64q26 -21 52 -25.5q26 -4.5 41 -4.5q15 0 41 4.5q26 4.5 52 25.5q26 21 45 64q19 43 19 119q0 76 -19 119q-19 43 -45 64q-26 21 -52 25.5q-26 4.5 -41 4.5q-15 0 -41 -4.5q-26 -4.5 -52 -25.5q-26 -21 -45 -64q-19 -43 -19 -119zt0 0zM43 254q0 51 13 100q13 49 42.5 87.5q29.5 38.5 77.5 62.5q48 24 117 24q69 0 117 -24q48 -24 77.5 -62.5q29.5 -38.5 42.5 -87.5q13 -49 13 -100q0 -51 -13 -100q-13 -49 -42.5 -87.5q-29.5 -38.5 -77.5 -62.5q-48 -24 -117 -24q-69 0 -117 24q-48 24 -77.5 62.5q-29.5 38.5 -42.5 87.5q-13 49 -13 100zt0 0zM227 700h132l119 -132h-88l-97 99l-97 -99l-88 0z" />
<glyph unicode="&#245;" horiz-adv-x="586" d="M136 255q0 -76 19 -119q19 -43 45 -64q26 -21 52 -25.5q26 -4.5 41 -4.5q15 0 41 4.5q26 4.5 52 25.5q26 21 45 64q19 43 19 119q0 76 -19 119q-19 43 -45 64q-26 21 -52 25.5q-26 4.5 -41 4.5q-15 0 -41 -4.5q-26 -4.5 -52 -25.5q-26 -21 -45 -64q-19 -43 -19 -119zt0 0zM43 254q0 51 13 100q13 49 42.5 87.5q29.5 38.5 77.5 62.5q48 24 117 24q69 0 117 -24q48 -24 77.5 -62.5q29.5 -38.5 42.5 -87.5q13 -49 13 -100q0 -51 -13 -100q-13 -49 -42.5 -87.5q-29.5 -38.5 -77.5 -62.5q-48 -24 -117 -24q-69 0 -117 24q-48 24 -77.5 62.5q-29.5 38.5 -42.5 87.5q-13 49 -13 100zt0 0zM478 700q-3 -15 -10 -33q-7 -18 -20 -33.5q-13 -15.5 -33 -25.5q-20 -10 -48 -10q-24 0 -43.5 8q-19.5 8 -38.5 18q-16 8 -32.5 16q-16.5 8 -34.5 8q-16 0 -32.5 -8.5q-16.5 -8.5 -18.5 -31.5l-59 0q7 39 35 69.5q28 30.5 76 30.5q21 0 37 -5q16 -5 37 -17q14 -8 33 -18q19 -10 41 -10q19 0 33.5 12q14.5 12 19.5 30z" />
<glyph unicode="&#246;" horiz-adv-x="586" d="M136 255q0 -76 19 -119q19 -43 45 -64q26 -21 52 -25.5q26 -4.5 41 -4.5q15 0 41 4.5q26 4.5 52 25.5q26 21 45 64q19 43 19 119q0 76 -19 119q-19 43 -45 64q-26 21 -52 25.5q-26 4.5 -41 4.5q-15 0 -41 -4.5q-26 -4.5 -52 -25.5q-26 -21 -45 -64q-19 -43 -19 -119zt0 0zM43 254q0 51 13 100q13 49 42.5 87.5q29.5 38.5 77.5 62.5q48 24 117 24q69 0 117 -24q48 -24 77.5 -62.5q29.5 -38.5 42.5 -87.5q13 -49 13 -100q0 -51 -13 -100q-13 -49 -42.5 -87.5q-29.5 -38.5 -77.5 -62.5q-48 -24 -117 -24q-69 0 -117 24q-48 24 -77.5 62.5q-29.5 38.5 -42.5 87.5q-13 49 -13 100zt0 0zM348 700h88v-92h-88zM150 700h88v-92l-88 0z" />
<glyph unicode="&#247;" horiz-adv-x="600" d="M50 357h500v-62h-500zM240 152q0 10 3.5 20.5q3.5 10.5 11 19.5q7.5 9 18.5 14.5q11 5.5 27 5.5q16 0 27 -5.5q11 -5.5 18.5 -14.5q7.5 -9 11 -19.5q3.5 -10.5 3.5 -20.5q0 -10 -3.5 -20.5q-3.5 -10.5 -11 -19.5q-7.5 -9 -18.5 -14.5q-11 -5.5 -27 -5.5q-16 0 -27 5.5q-11 5.5 -18.5 14.5q-7.5 9 -11 19.5q-3.5 10.5 -3.5 20.5zt0 0zM240 500q0 10 3.5 20.5q3.5 10.5 11 19.5q7.5 9 18.5 14.5q11 5.5 27 5.5q16 0 27 -5.5q11 -5.5 18.5 -14.5q7.5 -9 11 -19.5q3.5 -10.5 3.5 -20.5q0 -10 -3.5 -20.5q-3.5 -10.5 -11 -19.5q-7.5 -9 -18.5 -14.5q-11 -5.5 -27 -5.5q-16 0 -27 5.5q-11 5.5 -18.5 14.5q-7.5 9 -11 19.5t-3.5 20.5z" />
<glyph unicode="&#248;" horiz-adv-x="584" d="M189 83q27 -26 50.5 -33.5q23.5 -7.5 52.5 -7.5q14 0 40 4.5q26 4.5 52 25.5q26 21 45 64q19 43 19 119q0 53 -6 79q-6 26 -11 37zM399 423q-24 27 -52.5 35q-28.5 8 -54.5 8q-51 0 -82 -22q-31 -22 -47.5 -54.5q-16.5 -32.5 -21.5 -69q-5 -36.5 -5 -65.5q0 -11 1 -27q1 -16 3 -33q2 -17 6 -33q4 -16 10 -28zM99 66q-29 40 -42.5 90.5q-13.5 50.5 -13.5 98.5q0 59 15 109q15 50 45.5 86.5q30.5 36.5 77.5 57q47 20.5 111 20.5q63 0 99.5 -15q36.5 -15 56.5 -32l55 65l44 -38l-58 -69q7 -11 16.5 -27q9.5 -16 17 -39q7.5 -23 13 -52.5q5.5 -29.5 5.5 -65.5q0 -45 -11 -93.5q-11 -48.5 -39 -89q-28 -40.5 -76.5 -66.5q-48.5 -26 -122.5 -26q-54 0 -89.5 11.5q-35.5 11.5 -61.5 33.5l-53 -63l-45 38z" />
<glyph unicode="&#249;" horiz-adv-x="573" d="M413 0v72h-2q-19 -33 -46 -51.5q-27 -18.5 -52.5 -27.5q-25.5 -9 -46 -11q-20.5 -2 -27.5 -2q-56 0 -89.5 19q-33.5 19 -50.5 48q-17 29 -22 62q-5 33 -5 62v337h88v-311q0 -48 8 -78q8 -30 22 -47.5q14 -17.5 33.5 -23.5q19.5 -6 43.5 -6q55 0 85 24.5q30 24.5 43.5 56.5q13.5 32 15.5 63q2 31 2 45v277h88v-508zM348 568h-80l-96 132l106 0z" />
<glyph unicode="&#250;" horiz-adv-x="573" d="M413 0v72h-2q-19 -33 -46 -51.5q-27 -18.5 -52.5 -27.5q-25.5 -9 -46 -11q-20.5 -2 -27.5 -2q-56 0 -89.5 19q-33.5 19 -50.5 48q-17 29 -22 62q-5 33 -5 62v337h88v-311q0 -48 8 -78q8 -30 22 -47.5q14 -17.5 33.5 -23.5q19.5 -6 43.5 -6q55 0 85 24.5q30 24.5 43.5 56.5q13.5 32 15.5 63q2 31 2 45v277h88v-508zM400 700l-96 -132h-80l70 132z" />
<glyph unicode="&#251;" horiz-adv-x="573" d="M413 0v72h-2q-19 -33 -46 -51.5q-27 -18.5 -52.5 -27.5q-25.5 -9 -46 -11q-20.5 -2 -27.5 -2q-56 0 -89.5 19q-33.5 19 -50.5 48q-17 29 -22 62q-5 33 -5 62v337h88v-311q0 -48 8 -78q8 -30 22 -47.5q14 -17.5 33.5 -23.5q19.5 -6 43.5 -6q55 0 85 24.5q30 24.5 43.5 56.5q13.5 32 15.5 63q2 31 2 45v277h88v-508zM220 700h132l119 -132h-88l-97 99l-97 -99l-88 0z" />
<glyph unicode="&#252;" horiz-adv-x="573" d="M413 0v72h-2q-19 -33 -46 -51.5q-27 -18.5 -52.5 -27.5q-25.5 -9 -46 -11q-20.5 -2 -27.5 -2q-56 0 -89.5 19q-33.5 19 -50.5 48q-17 29 -22 62q-5 33 -5 62v337h88v-311q0 -48 8 -78q8 -30 22 -47.5q14 -17.5 33.5 -23.5q19.5 -6 43.5 -6q55 0 85 24.5q30 24.5 43.5 56.5q13.5 32 15.5 63q2 31 2 45v277h88v-508zM341 700h88v-92h-88zM143 700h88v-92l-88 0z" />
<glyph unicode="&#253;" horiz-adv-x="498" d="M91 -119q20 -3 29 -4q9 -1 15 -1q19 0 32 7q13 7 22 19q9 12 14.5 27.5q5.5 15.5 11.5 32.5l12 38l-220 508h105l163 -411l135 411h88l-202 -568q-6 -18 -14 -40.5q-8 -22.5 -22.5 -42q-14.5 -19.5 -37.5 -33q-23 -13.5 -59 -13.5q-21 0 -39.5 1q-18.5 1 -32.5 4zM363 700l-96 -132h-80l70 132z" />
<glyph unicode="&#254;" horiz-adv-x="597" d="M154 252q0 -59 15 -99q15 -40 38.5 -65q23.5 -25 51 -35.5q27.5 -10.5 52.5 -10.5q27 0 53.5 10.5q26.5 10.5 48 35q21.5 24.5 35 65q13.5 40.5 13.5 101.5q0 98 -40 155q-40 57 -115 57q-17 0 -43 -6.5q-26 -6.5 -50 -28.5q-24 -22 -41.5 -64.5q-17.5 -42.5 -17.5 -114.5zt0 0zM160 700v-262q23 43 68.5 66.5q45.5 23.5 96.5 23.5q57 0 100 -20.5q43 -20.5 71.5 -57q28.5 -36.5 43 -87q14.5 -50.5 14.5 -109.5q0 -74 -19 -126q-19 -52 -51 -85q-32 -33 -73 -48q-41 -15 -84 -15q-8 0 -28.5 2q-20.5 2 -45.5 11.5q-25 9.5 -50.5 28q-25.5 18.5 -42.5 51.5l0 -258h-88l0 885z" />
<glyph unicode="&#255;" horiz-adv-x="498" d="M91 -119q20 -3 29 -4q9 -1 15 -1q19 0 32 7q13 7 22 19q9 12 14.5 27.5q5.5 15.5 11.5 32.5l12 38l-220 508h105l163 -411l135 411h88l-202 -568q-6 -18 -14 -40.5q-8 -22.5 -22.5 -42q-14.5 -19.5 -37.5 -33q-23 -13.5 -59 -13.5q-21 0 -39.5 1q-18.5 1 -32.5 4zM304 700h88v-92h-88zM106 700h88v-92l-88 0z" />
<glyph unicode="&#256;" horiz-adv-x="622" d="M433 260l-122 345l-122 -345zM97 0h-101l265 700h100l265 -700h-101l-66 181h-296zM153 832h316v-60h-158l-158 0z" />
<glyph unicode="&#257;" horiz-adv-x="553" d="M385 260q-10 -8 -21 -11.5q-11 -3.5 -24 -5.5q-13 -2 -29.5 -3.5q-16.5 -1.5 -37.5 -4.5q-29 -5 -55.5 -9.5q-26.5 -4.5 -46.5 -14q-20 -9.5 -31.5 -27.5q-11.5 -18 -11.5 -48q0 -45 27.5 -69.5q27.5 -24.5 70.5 -24.5q26 0 52.5 7.5q26.5 7.5 49 27q22.5 19.5 37.5 53.5q15 34 18 87zM55 358q0 25 8.5 55q8.5 30 32 55.5q23.5 25.5 66 42.5q42.5 17 109.5 17q31 0 66.5 -6q35.5 -6 66 -24q30.5 -18 50.5 -51.5q20 -33.5 19 -89.5l-5 -235q0 -15 0.5 -26.5q0.5 -11.5 5.5 -19q5 -7.5 16 -11.5q11 -4 31 -3l0 -62q-9 -2 -17.5 -3q-8.5 -1 -22.5 -1q-18 0 -33.5 2.5q-15.5 2.5 -27 10q-11.5 7.5 -19 22q-7.5 14.5 -11.5 39.5q-13 -24 -32 -41q-19 -17 -42 -28q-23 -11 -48.5 -16q-25.5 -5 -51.5 -5q-80 0 -129.5 36.5q-49.5 36.5 -49.5 116.5q0 33 10 59.5q10 26.5 38 47q28 20.5 76 34q48 13.5 125 20.5q28 2 47 4q19 2 30.5 8.5q11.5 6.5 16.5 19.5q5 13 5 38q0 9 -2 26q-2 17 -13 34q-11 17 -34 29.5q-23 12.5 -65 12.5q-12 0 -34.5 -2q-22.5 -2 -44.5 -12.5q-22 -10.5 -38 -32q-16 -21.5 -15 -61.5zM118 673h316v-60h-158l-158 0z" />
<glyph unicode="&#258;" horiz-adv-x="622" d="M433 260l-122 345l-122 -345zM97 0h-101l265 700h100l265 -700h-101l-66 181h-296zM206 900q1 -39 30.5 -61.5q29.5 -22.5 74.5 -22.5q45 0 70.5 18.5q25.5 18.5 34.5 65.5l78 0q-4 -21 -14 -45.5q-10 -24.5 -31 -45.5q-21 -21 -54 -35q-33 -14 -84 -14q-51 0 -84 14q-33 14 -54 35q-21 21 -31 45.5q-10 24.5 -14 45.5z" />
<glyph unicode="&#259;" horiz-adv-x="553" d="M385 260q-10 -8 -21 -11.5q-11 -3.5 -24 -5.5q-13 -2 -29.5 -3.5q-16.5 -1.5 -37.5 -4.5q-29 -5 -55.5 -9.5q-26.5 -4.5 -46.5 -14q-20 -9.5 -31.5 -27.5q-11.5 -18 -11.5 -48q0 -45 27.5 -69.5q27.5 -24.5 70.5 -24.5q26 0 52.5 7.5q26.5 7.5 49 27q22.5 19.5 37.5 53.5q15 34 18 87zM55 358q0 25 8.5 55q8.5 30 32 55.5q23.5 25.5 66 42.5q42.5 17 109.5 17q31 0 66.5 -6q35.5 -6 66 -24q30.5 -18 50.5 -51.5q20 -33.5 19 -89.5l-5 -235q0 -15 0.5 -26.5q0.5 -11.5 5.5 -19q5 -7.5 16 -11.5q11 -4 31 -3l0 -62q-9 -2 -17.5 -3q-8.5 -1 -22.5 -1q-18 0 -33.5 2.5q-15.5 2.5 -27 10q-11.5 7.5 -19 22q-7.5 14.5 -11.5 39.5q-13 -24 -32 -41q-19 -17 -42 -28q-23 -11 -48.5 -16q-25.5 -5 -51.5 -5q-80 0 -129.5 36.5q-49.5 36.5 -49.5 116.5q0 33 10 59.5q10 26.5 38 47q28 20.5 76 34q48 13.5 125 20.5q28 2 47 4q19 2 30.5 8.5q11.5 6.5 16.5 19.5q5 13 5 38q0 9 -2 26q-2 17 -13 34q-11 17 -34 29.5q-23 12.5 -65 12.5q-12 0 -34.5 -2q-22.5 -2 -44.5 -12.5q-22 -10.5 -38 -32q-16 -21.5 -15 -61.5zM178 700q2 -30 25 -54.5q23 -24.5 73 -24.5q50 0 73 24.5q23 24.5 25 54.5l74 0q-3 -20 -13 -43q-10 -23 -30 -43q-20 -20 -51.5 -33q-31.5 -13 -77.5 -13q-47 0 -78 13q-31 13 -51 33q-20 20 -30 43q-10 23 -13 43z" />
<glyph unicode="&#260;" horiz-adv-x="622" d="M433 260l-122 345l-122 -345zM97 0h-101l265 700h100l265 -700q-26 -20 -42.5 -48.5q-16.5 -28.5 -16.5 -54.5q0 -23 11 -41q11 -18 35 -18q13 0 21 5.5q8 5.5 13 13q5 7.5 7.5 16.5q2.5 9 2.5 17l74 0q-1 -20 -9 -40.5q-8 -20.5 -23 -37q-15 -16.5 -37.5 -26.5q-22.5 -10 -53.5 -10q-57 0 -94 27.5q-37 27.5 -37 74.5q0 38 21.5 70q21.5 32 47.5 52l-21 0l-66 181l-296 0z" />
<glyph unicode="&#261;" horiz-adv-x="553" d="M385 260q-10 -8 -21 -11.5q-11 -3.5 -24 -5.5q-13 -2 -29.5 -3.5q-16.5 -1.5 -37.5 -4.5q-28 -4 -54 -9q-26 -5 -46.5 -15q-20.5 -10 -32.5 -27.5q-12 -17.5 -12 -47.5q0 -11 3.5 -27q3.5 -16 14 -31q10.5 -15 29.5 -25.5q19 -10.5 51 -10.5q26 0 52.5 7.5q26.5 7.5 49 27q22.5 19.5 37.5 53.5q15 34 18 87zM55 358q0 25 8.5 55q8.5 30 32 55.5q23.5 25.5 66 42.5q42.5 17 109.5 17q31 0 66.5 -6q35.5 -6 66 -24q30.5 -18 50.5 -51.5q20 -33.5 19 -89.5l-5 -235q0 -21 2.5 -33q2.5 -12 8 -18q5.5 -6 13.5 -7.5q8 -1.5 18 -1.5h11v-62q-26 -20 -42.5 -48.5q-16.5 -28.5 -16.5 -54.5q0 -23 11 -41q11 -18 35 -18q13 0 21 5.5q8 5.5 13 13q5 7.5 7.5 16.5q2.5 9 2.5 17l74 0q-1 -20 -9 -40.5q-8 -20.5 -23 -37q-15 -16.5 -37.5 -26.5q-22.5 -10 -53.5 -10q-57 0 -94 27.5q-37 27.5 -37 74.5q0 38 21.5 70q21.5 32 47.5 52q-23 5 -34.5 21.5q-11.5 16.5 -16.5 48.5q-13 -24 -32 -41q-19 -17 -42 -28q-23 -11 -48.5 -16q-25.5 -5 -51.5 -5q-80 0 -129.5 36.5q-49.5 36.5 -49.5 116.5q0 33 10 59.5q10 26.5 38 47q28 20.5 76 34q48 13.5 125 20.5q28 2 47 4q19 2 30.5 8.5q11.5 6.5 16.5 19.5q5 13 5 38q0 9 -2 26q-2 17 -13 34q-11 17 -34 29.5q-23 12.5 -65 12.5q-12 0 -34.5 -2q-22.5 -2 -44.5 -12.5q-22 -10.5 -38 -32q-16 -21.5 -15 -61.5z" />
<glyph unicode="&#262;" horiz-adv-x="712" d="M674 232q-5 -38 -20 -82q-15 -44 -48.5 -82q-33.5 -38 -88.5 -63.5q-55 -25.5 -139 -25.5q-78 0 -140 24.5q-62 24.5 -104.5 71q-42.5 46.5 -65.5 113q-23 66.5 -23 150.5q0 93 20.5 157.5q20.5 64.5 52 107q31.5 42.5 70.5 66.5q39 24 75.5 35.5q36.5 11.5 66.5 14q30 2.5 45 2.5q84 0 138 -22q54 -22 86.5 -56.5q32.5 -34.5 47 -76.5q14.5 -42 18.5 -82l-94 0q-2 19 -10.5 46q-8.5 27 -29.5 52q-21 25 -58.5 42.5q-37.5 17.5 -97.5 17.5q-66 0 -110 -25.5q-44 -25.5 -70.5 -67.5q-26.5 -42 -38 -96q-11.5 -54 -11.5 -111q0 -61 16 -113q16 -52 47 -90q31 -38 74.5 -59.5q43.5 -21.5 99.5 -21.5q42 0 77.5 13q35.5 13 61.5 36.5q26 23.5 41.5 55q15.5 31.5 17.5 69.5zM475 900l-102 -140h-84l74 140z" />
<glyph unicode="&#263;" horiz-adv-x="548" d="M512 181q-2 -23 -11.5 -57q-9.5 -34 -33 -66q-23.5 -32 -66 -55q-42.5 -23 -110.5 -23q-13 0 -36 2q-23 2 -51 10q-28 8 -56.5 25.5q-28.5 17.5 -51.5 48q-23 30.5 -38 77.5q-15 47 -15 115q0 44 10 92q10 48 37 87.5q27 39.5 74 65q47 25.5 121 25.5q54 0 94 -14.5q40 -14.5 67 -39.5q27 -25 42.5 -57q15.5 -32 19.5 -68l-84 0q-7 42 -25 66q-18 24 -39 35q-21 11 -41.5 13.5q-20.5 2.5 -31.5 2.5q-41 0 -70 -16.5q-29 -16.5 -47 -44.5q-18 -28 -26 -66q-8 -38 -8 -81q0 -43 9 -82q9 -39 27.5 -69q18.5 -30 48.5 -47.5q30 -17.5 72 -17.5q37 0 62.5 14q25.5 14 41.5 34.5q16 20.5 23 45q7 24.5 8 45.5zM388 700l-96 -132h-80l70 132z" />
<glyph unicode="&#264;" horiz-adv-x="712" d="M674 232q-5 -38 -20 -82q-15 -44 -48.5 -82q-33.5 -38 -88.5 -63.5q-55 -25.5 -139 -25.5q-78 0 -140 24.5q-62 24.5 -104.5 71q-42.5 46.5 -65.5 113q-23 66.5 -23 150.5q0 93 20.5 157.5q20.5 64.5 52 107q31.5 42.5 70.5 66.5q39 24 75.5 35.5q36.5 11.5 66.5 14q30 2.5 45 2.5q84 0 138 -22q54 -22 86.5 -56.5q32.5 -34.5 47 -76.5q14.5 -42 18.5 -82l-94 0q-2 19 -10.5 46q-8.5 27 -29.5 52q-21 25 -58.5 42.5q-37.5 17.5 -97.5 17.5q-66 0 -110 -25.5q-44 -25.5 -70.5 -67.5q-26.5 -42 -38 -96q-11.5 -54 -11.5 -111q0 -61 16 -113q16 -52 47 -90q31 -38 74.5 -59.5q43.5 -21.5 99.5 -21.5q42 0 77.5 13q35.5 13 61.5 36.5q26 23.5 41.5 55q15.5 31.5 17.5 69.5zM285 900h142l125 -140h-94l-102 105l-102 -105l-94 0z" />
<glyph unicode="&#265;" horiz-adv-x="548" d="M512 181q-2 -23 -11.5 -57q-9.5 -34 -33 -66q-23.5 -32 -66 -55q-42.5 -23 -110.5 -23q-13 0 -36 2q-23 2 -51 10q-28 8 -56.5 25.5q-28.5 17.5 -51.5 48q-23 30.5 -38 77.5q-15 47 -15 115q0 44 10 92q10 48 37 87.5q27 39.5 74 65q47 25.5 121 25.5q54 0 94 -14.5q40 -14.5 67 -39.5q27 -25 42.5 -57q15.5 -32 19.5 -68l-84 0q-7 42 -25 66q-18 24 -39 35q-21 11 -41.5 13.5q-20.5 2.5 -31.5 2.5q-41 0 -70 -16.5q-29 -16.5 -47 -44.5q-18 -28 -26 -66q-8 -38 -8 -81q0 -43 9 -82q9 -39 27.5 -69q18.5 -30 48.5 -47.5q30 -17.5 72 -17.5q37 0 62.5 14q25.5 14 41.5 34.5q16 20.5 23 45q7 24.5 8 45.5zM208 700h132l119 -132h-88l-97 99l-97 -99l-88 0z" />
<glyph unicode="&#266;" horiz-adv-x="712" d="M674 232q-5 -38 -20 -82q-15 -44 -48.5 -82q-33.5 -38 -88.5 -63.5q-55 -25.5 -139 -25.5q-78 0 -140 24.5q-62 24.5 -104.5 71q-42.5 46.5 -65.5 113q-23 66.5 -23 150.5q0 93 20.5 157.5q20.5 64.5 52 107q31.5 42.5 70.5 66.5q39 24 75.5 35.5q36.5 11.5 66.5 14q30 2.5 45 2.5q84 0 138 -22q54 -22 86.5 -56.5q32.5 -34.5 47 -76.5q14.5 -42 18.5 -82l-94 0q-2 19 -10.5 46q-8.5 27 -29.5 52q-21 25 -58.5 42.5q-37.5 17.5 -97.5 17.5q-66 0 -110 -25.5q-44 -25.5 -70.5 -67.5q-26.5 -42 -38 -96q-11.5 -54 -11.5 -111q0 -61 16 -113q16 -52 47 -90q31 -38 74.5 -59.5q43.5 -21.5 99.5 -21.5q42 0 77.5 13q35.5 13 61.5 36.5q26 23.5 41.5 55q15.5 31.5 17.5 69.5zM310 851h94v-79l-94 0z" />
<glyph unicode="&#267;" horiz-adv-x="548" d="M512 181q-2 -23 -11.5 -57q-9.5 -34 -33 -66q-23.5 -32 -66 -55q-42.5 -23 -110.5 -23q-13 0 -36 2q-23 2 -51 10q-28 8 -56.5 25.5q-28.5 17.5 -51.5 48q-23 30.5 -38 77.5q-15 47 -15 115q0 44 10 92q10 48 37 87.5q27 39.5 74 65q47 25.5 121 25.5q54 0 94 -14.5q40 -14.5 67 -39.5q27 -25 42.5 -57q15.5 -32 19.5 -68l-84 0q-7 42 -25 66q-18 24 -39 35q-21 11 -41.5 13.5q-20.5 2.5 -31.5 2.5q-41 0 -70 -16.5q-29 -16.5 -47 -44.5q-18 -28 -26 -66q-8 -38 -8 -81q0 -43 9 -82q9 -39 27.5 -69q18.5 -30 48.5 -47.5q30 -17.5 72 -17.5q37 0 62.5 14q25.5 14 41.5 34.5q16 20.5 23 45q7 24.5 8 45.5zM228 700h92v-92l-92 0z" />
<glyph unicode="&#268;" horiz-adv-x="712" d="M674 232q-5 -38 -20 -82q-15 -44 -48.5 -82q-33.5 -38 -88.5 -63.5q-55 -25.5 -139 -25.5q-78 0 -140 24.5q-62 24.5 -104.5 71q-42.5 46.5 -65.5 113q-23 66.5 -23 150.5q0 93 20.5 157.5q20.5 64.5 52 107q31.5 42.5 70.5 66.5q39 24 75.5 35.5q36.5 11.5 66.5 14q30 2.5 45 2.5q84 0 138 -22q54 -22 86.5 -56.5q32.5 -34.5 47 -76.5q14.5 -42 18.5 -82l-94 0q-2 19 -10.5 46q-8.5 27 -29.5 52q-21 25 -58.5 42.5q-37.5 17.5 -97.5 17.5q-66 0 -110 -25.5q-44 -25.5 -70.5 -67.5q-26.5 -42 -38 -96q-11.5 -54 -11.5 -111q0 -61 16 -113q16 -52 47 -90q31 -38 74.5 -59.5q43.5 -21.5 99.5 -21.5q42 0 77.5 13q35.5 13 61.5 36.5q26 23.5 41.5 55q15.5 31.5 17.5 69.5zM285 760l-125 140h94l102 -105l102 105h94l-125 -140z" />
<glyph unicode="&#269;" horiz-adv-x="548" d="M512 181q-2 -23 -11.5 -57q-9.5 -34 -33 -66q-23.5 -32 -66 -55q-42.5 -23 -110.5 -23q-13 0 -36 2q-23 2 -51 10q-28 8 -56.5 25.5q-28.5 17.5 -51.5 48q-23 30.5 -38 77.5q-15 47 -15 115q0 44 10 92q10 48 37 87.5q27 39.5 74 65q47 25.5 121 25.5q54 0 94 -14.5q40 -14.5 67 -39.5q27 -25 42.5 -57q15.5 -32 19.5 -68l-84 0q-7 42 -25 66q-18 24 -39 35q-21 11 -41.5 13.5q-20.5 2.5 -31.5 2.5q-41 0 -70 -16.5q-29 -16.5 -47 -44.5q-18 -28 -26 -66q-8 -38 -8 -81q0 -43 9 -82q9 -39 27.5 -69q18.5 -30 48.5 -47.5q30 -17.5 72 -17.5q37 0 62.5 14q25.5 14 41.5 34.5q16 20.5 23 45q7 24.5 8 45.5zM208 568l-119 132h88l97 -99l97 99h88l-119 -132z" />
<glyph unicode="&#270;" horiz-adv-x="719" d="M179 79h131q135 0 200 65.5q65 65.5 65 205.5q0 79 -20.5 131.5q-20.5 52.5 -54 83.5q-33.5 31 -76 43.5q-42.5 12.5 -87.5 12.5h-158zM342 700q18 0 49.5 -2q31.5 -2 68.5 -12.5q37 -10.5 75.5 -32q38.5 -21.5 69.5 -60q31 -38.5 50.5 -97.5q19.5 -59 19.5 -144q0 -86 -19 -145.5q-19 -59.5 -50 -98.5q-31 -39 -70.5 -61q-39.5 -22 -80.5 -32.5q-41 -10.5 -79.5 -12.5q-38.5 -2 -68.5 -2h-222v700zM288 760l-125 140h94l102 -105l102 105h94l-125 -140z" />
<glyph unicode="&#271;" horiz-adv-x="672" d="M122 255q0 -72 17.5 -114.5q17.5 -42.5 42 -64q24.5 -21.5 51.5 -28q27 -6.5 46 -6.5q29 0 56.5 11.5q27.5 11.5 48.5 37q21 25.5 34 66.5q13 41 13 100q0 55 -12.5 94.5q-12.5 39.5 -34.5 65q-22 25.5 -50.5 37.5q-28.5 12 -59.5 12q-32 0 -59.5 -12q-27.5 -12 -48 -37.5q-20.5 -25.5 -32.5 -65.5q-12 -40 -12 -96zt0 0zM513 700v-700h-82v70h-3q-6 -12 -18 -28q-12 -16 -32 -29.5q-20 -13.5 -49 -23q-29 -9.5 -69 -9.5q-56 0 -99 20q-43 20 -72 56.5q-29 36.5 -44.5 87q-15.5 50.5 -15.5 111.5q0 40 8 87.5q8 47.5 33 89q25 41.5 69.5 69q44.5 27.5 118.5 27.5q51 0 93.5 -17q42.5 -17 73.5 -69l0 258zM681 700v-140q0 -30 -10 -51q-10 -21 -25 -34.5q-15 -13.5 -32 -21q-17 -7.5 -32 -10.5l0 55q21 2 35.5 20.5q14.5 18.5 14.5 41.5v31h-50l0 109z" />
<glyph unicode="&#272;" horiz-adv-x="728" d="M188 428h198v-62h-198v-287h131q135 0 200 65.5q65 65.5 65 205.5q0 79 -20.5 131.5q-20.5 52.5 -54 83.5q-33.5 31 -76 43.5q-42.5 12.5 -87.5 12.5h-158zM351 700q18 0 49.5 -2q31.5 -2 68.5 -12.5q37 -10.5 75.5 -32q38.5 -21.5 69.5 -60q31 -38.5 50.5 -97.5q19.5 -59 19.5 -144q0 -86 -19 -145.5q-19 -59.5 -50 -98.5q-31 -39 -70.5 -61q-39.5 -22 -80.5 -32.5q-41 -10.5 -79.5 -12.5q-38.5 -2 -68.5 -2h-222v366h-94v62h94l0 272z" />
<glyph unicode="&#273;" horiz-adv-x="599" d="M136 255q0 -72 17.5 -114.5q17.5 -42.5 42 -64q24.5 -21.5 51.5 -28q27 -6.5 46 -6.5q8 0 22.5 2q14.5 2 31 8.5q16.5 6.5 34 20.5q17.5 14 31.5 37.5q14 23.5 23 59.5q9 36 9 87q0 55 -12.5 94.5q-12.5 39.5 -33.5 65q-21 25.5 -49.5 37.5q-28.5 12 -60.5 12q-32 0 -59.5 -12q-27.5 -12 -48 -37.5q-20.5 -25.5 -32.5 -65.5q-12 -40 -12 -96zt0 0zM527 700v-65h85v-54h-85v-581h-83v70h-2q-6 -12 -18 -28q-12 -16 -32 -29.5q-20 -13.5 -49 -23q-29 -9.5 -69 -9.5q-56 0 -99 20q-43 20 -72 56.5q-29 36.5 -44.5 87q-15.5 50.5 -15.5 111.5q0 40 8 87.5q8 47.5 33 89q25 41.5 69.5 69q44.5 27.5 118.5 27.5q51 0 93.5 -17q42.5 -17 73.5 -69l0 139h-184v54h184l0 65z" />
<glyph unicode="&#274;" horiz-adv-x="612" d="M546 401v-79h-367v-243h416v-79h-510v700h499v-79h-405v-220zM148 832h316v-60h-158l-158 0z" />
<glyph unicode="&#275;" horiz-adv-x="570" d="M434 296q-1 25 -7 55q-6 30 -21.5 55.5q-15.5 25.5 -42.5 42.5q-27 17 -70 17q-48 0 -79 -17.5q-31 -17.5 -48.5 -43.5q-17.5 -26 -23.5 -55.5q-6 -29.5 -6 -53.5zM522 147q-5 -27 -18.5 -56.5q-13.5 -29.5 -39 -54q-25.5 -24.5 -65.5 -40.5q-40 -16 -99 -16q-63 0 -106.5 17q-43.5 17 -72 43.5q-28.5 26.5 -44.5 58.5q-16 32 -23.5 62q-7.5 30 -9 54.5q-1.5 24.5 -1.5 36.5q0 17 2 44.5q2 27.5 10 58q8 30.5 24 61.5q16 31 43.5 56q27.5 25 68.5 40.5q41 15.5 100 15.5q76 0 121.5 -26.5q45.5 -26.5 70 -66.5q24.5 -40 33 -87.5q8.5 -47.5 10.5 -88.5q0 -6 0.5 -12.5q0.5 -6.5 0.5 -12.5l-391 0q0 -33 9 -67q9 -34 28 -61.5q19 -27.5 49.5 -45.5q30.5 -18 74.5 -18q31 0 56 8.5q25 8.5 42.5 23q17.5 14.5 28 33.5q10.5 19 14.5 40zM127 673h316v-60h-158l-158 0z" />
<glyph unicode="&#276;" horiz-adv-x="612" d="M546 401v-79h-367v-243h416v-79h-510v700h499v-79h-405v-220zM232 900q1 -39 30.5 -61.5q29.5 -22.5 74.5 -22.5q45 0 70.5 18.5q25.5 18.5 34.5 65.5l78 0q-4 -21 -14 -45.5q-10 -24.5 -31 -45.5q-21 -21 -54 -35q-33 -14 -84 -14q-51 0 -84 14q-33 14 -54 35q-21 21 -31 45.5q-10 24.5 -14 45.5z" />
<glyph unicode="&#277;" horiz-adv-x="570" d="M434 296q-1 25 -7 55q-6 30 -21.5 55.5q-15.5 25.5 -42.5 42.5q-27 17 -70 17q-48 0 -79 -17.5q-31 -17.5 -48.5 -43.5q-17.5 -26 -23.5 -55.5q-6 -29.5 -6 -53.5zM522 147q-5 -27 -18.5 -56.5q-13.5 -29.5 -39 -54q-25.5 -24.5 -65.5 -40.5q-40 -16 -99 -16q-63 0 -106.5 17q-43.5 17 -72 43.5q-28.5 26.5 -44.5 58.5q-16 32 -23.5 62q-7.5 30 -9 54.5q-1.5 24.5 -1.5 36.5q0 17 2 44.5q2 27.5 10 58q8 30.5 24 61.5q16 31 43.5 56q27.5 25 68.5 40.5q41 15.5 100 15.5q76 0 121.5 -26.5q45.5 -26.5 70 -66.5q24.5 -40 33 -87.5q8.5 -47.5 10.5 -88.5q0 -6 0.5 -12.5q0.5 -6.5 0.5 -12.5l-391 0q0 -33 9 -67q9 -34 28 -61.5q19 -27.5 49.5 -45.5q30.5 -18 74.5 -18q31 0 56 8.5q25 8.5 42.5 23q17.5 14.5 28 33.5q10.5 19 14.5 40zM187 700q2 -30 25 -54.5q23 -24.5 73 -24.5q50 0 73 24.5q23 24.5 25 54.5l74 0q-3 -20 -13 -43q-10 -23 -30 -43q-20 -20 -51.5 -33q-31.5 -13 -77.5 -13q-47 0 -78 13q-31 13 -51 33q-20 20 -30 43q-10 23 -13 43z" />
<glyph unicode="&#278;" horiz-adv-x="612" d="M546 401v-79h-367v-243h416v-79h-510v700h499v-79h-405v-220zM259 851h94v-79l-94 0z" />
<glyph unicode="&#279;" horiz-adv-x="570" d="M434 296q-1 25 -7 55q-6 30 -21.5 55.5q-15.5 25.5 -42.5 42.5q-27 17 -70 17q-48 0 -79 -17.5q-31 -17.5 -48.5 -43.5q-17.5 -26 -23.5 -55.5q-6 -29.5 -6 -53.5zM522 147q-5 -27 -18.5 -56.5q-13.5 -29.5 -39 -54q-25.5 -24.5 -65.5 -40.5q-40 -16 -99 -16q-63 0 -106.5 17q-43.5 17 -72 43.5q-28.5 26.5 -44.5 58.5q-16 32 -23.5 62q-7.5 30 -9 54.5q-1.5 24.5 -1.5 36.5q0 17 2 44.5q2 27.5 10 58q8 30.5 24 61.5q16 31 43.5 56q27.5 25 68.5 40.5q41 15.5 100 15.5q76 0 121.5 -26.5q45.5 -26.5 70 -66.5q24.5 -40 33 -87.5q8.5 -47.5 10.5 -88.5q0 -6 0.5 -12.5q0.5 -6.5 0.5 -12.5l-391 0q0 -33 9 -67q9 -34 28 -61.5q19 -27.5 49.5 -45.5q30.5 -18 74.5 -18q31 0 56 8.5q25 8.5 42.5 23q17.5 14.5 28 33.5q10.5 19 14.5 40zM239 700h92v-92l-92 0z" />
<glyph unicode="&#280;" horiz-adv-x="612" d="M546 401v-79h-367v-243h416v-79h-50q-30 -17 -47 -45.5q-17 -28.5 -17 -57.5q0 -23 10.5 -41q10.5 -18 35.5 -18q13 0 21 5.5q8 5.5 13 13q5 7.5 7.5 16.5q2.5 9 2.5 17l74 0q-1 -20 -9 -40.5q-8 -20.5 -23 -37q-15 -16.5 -37.5 -26.5q-22.5 -10 -53.5 -10q-57 0 -94 27.5q-37 27.5 -37 74.5q0 38 21.5 70q21.5 32 47.5 52l-375 0v700h499v-79h-405l0 -220z" />
</font>
</defs>
</svg>
